<?xml version="1.0" encoding="utf-8"?>
<!-- Generator: Adobe Illustrator 27.5.0, SVG Export Plug-In . SVG Version: 6.00 Build 0)  -->
<svg version="1.1" id="Layer_1" xmlns="http://www.w3.org/2000/svg" xmlns:xlink="http://www.w3.org/1999/xlink" x="0px" y="0px"
	 viewBox="0 0 303.454 226.6" style="enable-background:new 0 0 303.454 226.6;" xml:space="preserve">
<g>
	<g>
		<g>
			
				<linearGradient id="SVGID_1_" gradientUnits="userSpaceOnUse" x1="-1557.6102" y1="-122.45" x2="-1557.6102" y2="-120.0859" gradientTransform="matrix(0.5778 0.8162 -0.8162 0.5778 821.361 1536.5159)">
				<stop  offset="0" style="stop-color:#DF193A"/>
				<stop  offset="0.0746" style="stop-color:#BD132B"/>
				<stop  offset="0.1635" style="stop-color:#9B0C1C"/>
				<stop  offset="0.2548" style="stop-color:#810710"/>
				<stop  offset="0.3479" style="stop-color:#6E0408"/>
				<stop  offset="0.444" style="stop-color:#630203"/>
				<stop  offset="0.5478" style="stop-color:#5F0101"/>
				<stop  offset="0.6522" style="stop-color:#540102"/>
				<stop  offset="0.8192" style="stop-color:#490004"/>
				<stop  offset="1" style="stop-color:#450004"/>
			</linearGradient>
			<path style="fill:url(#SVGID_1_);" d="M19.613,192.098l-1.038,0.734c-0.457,0.323-0.076,1.655,0.849,2.955
				c0.932,1.31,2.051,2.105,2.499,1.779l1.081-0.764L19.613,192.098z"/>
			
				<linearGradient id="SVGID_00000158707284943924404050000005984136701288960410_" gradientUnits="userSpaceOnUse" x1="-1559.8457" y1="-121.8927" x2="-1559.8457" y2="-120.5401" gradientTransform="matrix(0.5778 0.8162 -0.8162 0.5778 821.361 1536.5159)">
				<stop  offset="0" style="stop-color:#DF193A"/>
				<stop  offset="0.0746" style="stop-color:#BD132B"/>
				<stop  offset="0.1635" style="stop-color:#9B0C1C"/>
				<stop  offset="0.2548" style="stop-color:#810710"/>
				<stop  offset="0.3479" style="stop-color:#6E0408"/>
				<stop  offset="0.444" style="stop-color:#630203"/>
				<stop  offset="0.5478" style="stop-color:#5F0101"/>
				<stop  offset="0.6522" style="stop-color:#540102"/>
				<stop  offset="0.8192" style="stop-color:#490004"/>
				<stop  offset="1" style="stop-color:#450004"/>
			</linearGradient>
			<path style="fill:url(#SVGID_00000158707284943924404050000005984136701288960410_);" d="M18.468,193.723
				c-0.042-0.059-0.033-0.129,0.018-0.165l0.92-0.66c0.042-0.033,0.128-0.018,0.163,0.04c0.043,0.061,0.032,0.136-0.023,0.174
				l-0.912,0.648C18.575,193.8,18.508,193.78,18.468,193.723z"/>
			
				<linearGradient id="SVGID_00000176759964505648071240000016319510276870191757_" gradientUnits="userSpaceOnUse" x1="-1558.8885" y1="-121.6543" x2="-1558.8885" y2="-120.3007" gradientTransform="matrix(0.5778 0.8162 -0.8162 0.5778 821.361 1536.5159)">
				<stop  offset="0" style="stop-color:#DF193A"/>
				<stop  offset="0.0746" style="stop-color:#BD132B"/>
				<stop  offset="0.1635" style="stop-color:#9B0C1C"/>
				<stop  offset="0.2548" style="stop-color:#810710"/>
				<stop  offset="0.3479" style="stop-color:#6E0408"/>
				<stop  offset="0.444" style="stop-color:#630203"/>
				<stop  offset="0.5478" style="stop-color:#5F0101"/>
				<stop  offset="0.6522" style="stop-color:#540102"/>
				<stop  offset="0.8192" style="stop-color:#490004"/>
				<stop  offset="1" style="stop-color:#450004"/>
			</linearGradient>
			<path style="fill:url(#SVGID_00000176759964505648071240000016319510276870191757_);" d="M18.825,194.642
				c-0.04-0.057-0.025-0.135,0.016-0.167l0.922-0.658c0.054-0.04,0.132-0.02,0.166,0.044c0.042,0.059,0.031,0.127-0.015,0.169
				l-0.924,0.647C18.936,194.715,18.867,194.7,18.825,194.642z"/>
			
				<linearGradient id="SVGID_00000070111671041572504590000013500809033514078870_" gradientUnits="userSpaceOnUse" x1="-1557.7552" y1="-121.5664" x2="-1557.7552" y2="-120.2047" gradientTransform="matrix(0.5778 0.8162 -0.8162 0.5778 821.361 1536.5159)">
				<stop  offset="0" style="stop-color:#DF193A"/>
				<stop  offset="0.0746" style="stop-color:#BD132B"/>
				<stop  offset="0.1635" style="stop-color:#9B0C1C"/>
				<stop  offset="0.2548" style="stop-color:#810710"/>
				<stop  offset="0.3479" style="stop-color:#6E0408"/>
				<stop  offset="0.444" style="stop-color:#630203"/>
				<stop  offset="0.5478" style="stop-color:#5F0101"/>
				<stop  offset="0.6522" style="stop-color:#540102"/>
				<stop  offset="0.8192" style="stop-color:#490004"/>
				<stop  offset="1" style="stop-color:#450004"/>
			</linearGradient>
			<path style="fill:url(#SVGID_00000070111671041572504590000013500809033514078870_);" d="M19.404,195.625
				c-0.038-0.061-0.034-0.139,0.022-0.176l0.919-0.653c0.049-0.038,0.124-0.015,0.167,0.037c0.035,0.066,0.025,0.135-0.026,0.17
				l-0.913,0.654C19.517,195.695,19.446,195.678,19.404,195.625z"/>
			
				<linearGradient id="SVGID_00000066509605900348122890000009960896921179678638_" gradientUnits="userSpaceOnUse" x1="-1556.6024" y1="-121.623" x2="-1556.6024" y2="-120.2613" gradientTransform="matrix(0.5778 0.8162 -0.8162 0.5778 821.361 1536.5159)">
				<stop  offset="0" style="stop-color:#DF193A"/>
				<stop  offset="0.0746" style="stop-color:#BD132B"/>
				<stop  offset="0.1635" style="stop-color:#9B0C1C"/>
				<stop  offset="0.2548" style="stop-color:#810710"/>
				<stop  offset="0.3479" style="stop-color:#6E0408"/>
				<stop  offset="0.444" style="stop-color:#630203"/>
				<stop  offset="0.5478" style="stop-color:#5F0101"/>
				<stop  offset="0.6522" style="stop-color:#540102"/>
				<stop  offset="0.8192" style="stop-color:#490004"/>
				<stop  offset="1" style="stop-color:#450004"/>
			</linearGradient>
			<path style="fill:url(#SVGID_00000066509605900348122890000009960896921179678638_);" d="M20.112,196.529
				c-0.041-0.058-0.025-0.135,0.02-0.17l0.922-0.649c0.055-0.039,0.125-0.021,0.166,0.028c0.039,0.064,0.035,0.14-0.02,0.178
				l-0.924,0.647C20.227,196.6,20.154,196.579,20.112,196.529z"/>
			
				<linearGradient id="SVGID_00000102505889013883191650000009612934132088589243_" gradientUnits="userSpaceOnUse" x1="-1555.6235" y1="-121.8139" x2="-1555.6235" y2="-120.4516" gradientTransform="matrix(0.5778 0.8162 -0.8162 0.5778 821.361 1536.5159)">
				<stop  offset="0" style="stop-color:#DF193A"/>
				<stop  offset="0.0746" style="stop-color:#BD132B"/>
				<stop  offset="0.1635" style="stop-color:#9B0C1C"/>
				<stop  offset="0.2548" style="stop-color:#810710"/>
				<stop  offset="0.3479" style="stop-color:#6E0408"/>
				<stop  offset="0.444" style="stop-color:#630203"/>
				<stop  offset="0.5478" style="stop-color:#5F0101"/>
				<stop  offset="0.6522" style="stop-color:#540102"/>
				<stop  offset="0.8192" style="stop-color:#490004"/>
				<stop  offset="1" style="stop-color:#450004"/>
			</linearGradient>
			<path style="fill:url(#SVGID_00000102505889013883191650000009612934132088589243_);" d="M20.837,197.222
				c-0.044-0.063-0.037-0.135,0.013-0.164l0.93-0.663c0.056-0.037,0.127-0.02,0.167,0.037c0.043,0.06,0.031,0.136-0.021,0.17
				l-0.93,0.654C20.946,197.294,20.881,197.276,20.837,197.222z"/>
			
				<linearGradient id="SVGID_00000111172942856457540750000012121862520693895827_" gradientUnits="userSpaceOnUse" x1="-1557.6085" y1="-123.414" x2="-1557.6085" y2="-121.3526" gradientTransform="matrix(0.5778 0.8162 -0.8162 0.5778 821.361 1536.5159)">
				<stop  offset="0" style="stop-color:#DF193A"/>
				<stop  offset="0.0746" style="stop-color:#BD132B"/>
				<stop  offset="0.1635" style="stop-color:#9B0C1C"/>
				<stop  offset="0.2548" style="stop-color:#810710"/>
				<stop  offset="0.3479" style="stop-color:#6E0408"/>
				<stop  offset="0.444" style="stop-color:#630203"/>
				<stop  offset="0.5478" style="stop-color:#5F0101"/>
				<stop  offset="0.6522" style="stop-color:#540102"/>
				<stop  offset="0.8192" style="stop-color:#490004"/>
				<stop  offset="1" style="stop-color:#450004"/>
			</linearGradient>
			<path style="fill:url(#SVGID_00000111172942856457540750000012121862520693895827_);" d="M22.966,196.832
				c-0.462,0.323-1.581-0.474-2.515-1.777c-0.917-1.306-1.294-2.634-0.838-2.956c0.453-0.32,1.584,0.469,2.503,1.785
				C23.047,195.191,23.426,196.506,22.966,196.832z"/>
		</g>
		<g>
			<path style="fill:#EE2138;" d="M114.139,117.192c0,0-7.754,2.035-11.12-6.788c-8.307-21.773,20.949-26.825,13.242-32.059
				c-11.606-7.881-32.435,13.777-36.44,21.092c-7.237,13.217-18.09,21.544-40.547,26.45c-22.447,4.896-41.226,14.001-32.236,46.638
				c9.551,28.712,39.415,55.462,59.289,49.72c11.88-3.44,20.309-11.945,28.526-31.76c7.836-17.515,20.04-17.612,32.356-23.526
				c12.303-5.908,20.623-15.685,9.066-18.399c-11.568-2.703-21.997-5.579-20.909-14.595
				C116.446,124.951,114.139,117.192,114.139,117.192z"/>
			<path style="fill:#690404;" d="M60.603,223.201c-8.365,0-18.214-4.449-27.906-12.761c-11.594-9.944-21.248-24.097-25.826-37.859
				c-3.516-12.763-3.037-22.581,1.462-30.026c6.196-10.252,19.099-14.266,30.904-16.841c20.972-4.582,32.685-12.219,40.43-26.362
				c2.991-5.463,15.878-19.685,27.276-22.434c3.688-0.889,6.857-0.459,9.418,1.281c0.907,0.616,1.359,1.259,1.383,1.967
				c0.053,1.562-2.05,3.208-4.713,5.292c-5.93,4.642-14.892,11.657-9.846,24.883c3.272,8.576,10.834,6.7,10.91,6.681l0.165-0.044
				l0.049,0.164c0.023,0.078,2.305,7.897,1.232,16.846c-1.038,8.601,8.369,11.503,20.774,14.402c3.507,0.823,5.402,2.32,5.634,4.448
				c0.441,4.051-5.588,9.924-14.663,14.282c-2.874,1.38-5.756,2.449-8.543,3.484c-9.126,3.386-17.746,6.584-23.728,19.955
				c-7.887,19.02-16.185,28.251-28.638,31.858C64.554,222.942,62.621,223.201,60.603,223.201z M110.491,76.823
				c-1.094,0-2.251,0.146-3.466,0.439C95.727,79.987,82.944,94.1,79.976,99.522c-7.799,14.243-19.581,21.931-40.664,26.538
				c-11.731,2.558-24.55,6.541-30.677,16.678c-4.446,7.356-4.913,17.084-1.426,29.74c4.556,13.695,14.171,27.789,25.718,37.693
				c11.938,10.24,24.094,14.579,33.351,11.904c12.337-3.573,20.569-12.745,28.411-31.658c6.044-13.511,14.732-16.734,23.93-20.147
				c2.779-1.031,5.654-2.098,8.513-3.471c8.8-4.226,14.884-10.082,14.465-13.925c-0.214-1.963-2.018-3.357-5.363-4.142
				c-10.407-2.432-22.202-5.189-21.044-14.788c0.979-8.163-0.857-15.378-1.174-16.54c-2.8,0.653-8.508,0.016-11.161-6.938
				c-5.139-13.47,3.947-20.581,9.959-25.287c2.583-2.022,4.624-3.619,4.577-5.002c-0.02-0.587-0.422-1.138-1.228-1.686
				C114.525,77.38,112.626,76.823,110.491,76.823z"/>
		</g>
		<path style="fill:#B72138;" d="M94.853,190.486c7.836-17.515,20.04-17.612,32.356-23.526c8.672-4.164,15.364-10.25,14.512-14.431
			c-0.061,0.122-0.135,0.238-0.222,0.347c-0.354,0.441-0.925,0.684-1.486,0.691c-0.584,0.008-1.112-0.342-1.556-0.685
			c-0.482-0.373-0.911-0.818-1.417-1.159c-0.656-0.442-1.373-0.794-2.107-1.085c-1.485-0.59-3.054-0.925-4.61-1.265
			c-3.247-0.709-6.473-1.656-9.501-3.041c-1.577-0.721-3.106-1.577-4.477-2.644c-0.659-0.513-1.287-1.074-1.845-1.696
			c-0.418-0.466-0.796-0.996-1-1.594c-0.566-1.655,0.596-2.945,1.878-3.921c-0.109-0.781-0.12-1.614-0.012-2.511
			c1.081-9.016-1.226-16.774-1.226-16.774s-3.157,0.824-6.317-0.869c-0.272,0.176-0.56,0.326-0.87,0.437
			c-0.853,0.307-1.83,0.655-2.654,0.093c-0.343-0.234-0.615-0.563-0.889-0.871c-0.471-0.529-0.963-1.02-1.488-1.495
			c-2.142-1.933-4.861-3.755-7.872-3.636c-3.488,0.138-6.096,3.056-8.017,5.678c-2.212,3.02-3.902,6.38-6.069,9.429
			c-2.262,3.183-5.241,5.951-8.294,8.364c-3.11,2.457-6.606,4.669-10.381,5.94c-6.539,2.203-14.833,2.12-19.331,8.198
			c-3.962,5.355-2.55,12.897,0.996,18.059c4.08,5.939,10.784,9.299,15.317,14.827c2.045,2.494,3.801,5.335,4.988,8.338
			c0.558,1.411,0.988,2.892,1.145,4.405c0.164,1.582-0.054,3.18-0.45,4.714c-0.719,2.785-2.209,5.329-4.458,7.147
			c-2.157,1.743-4.852,2.707-7.593,2.994c-5.193,0.545-10.159-1.288-14.511-3.986c-3.631-2.251-6.881-5.085-9.778-8.216
			c-3.111-3.361-5.827-7.087-8.128-11.045c-2.295-3.947-4.192-8.138-5.555-12.497c-1.296-4.144-2.122-8.466-2.196-12.815
			c-0.068-3.978,0.507-7.994,1.997-11.698c1.487-3.697,3.888-6.962,6.967-9.49c4.36-3.581,9.799-5.38,15.098-7.074
			c7.02-2.245,14.223-4.016,20.99-6.986c3.466-1.521,6.789-3.369,9.823-5.639c3.048-2.28,5.734-4.982,8.204-7.869
			c4.801-5.611,8.797-11.852,13.54-17.509c4.653-5.551,10.12-10.406,16.929-13.101c0.004-0.002,0.007-0.001,0.011-0.002
			c0.376-0.208,0.757-0.408,1.145-0.595c1.167-0.565,2.495-1.113,3.818-1.048c0.497,0.024,0.984,0.157,1.394,0.446
			c0.428,0.302,0.72,0.76,0.896,1.246c0.105,0.289,0.185,0.583,0.153,0.892c-0.036,0.348-0.181,0.685-0.347,0.989
			c-0.471,0.865-1.151,1.615-1.824,2.326c-1.542,1.63-3.293,3.066-4.768,4.759c-0.663,0.761-1.151,1.654-1.575,2.566
			c-0.534,1.15-0.925,2.364-1.195,3.604c4.728-10.284,18.917-14.021,13.271-17.855c-11.606-7.881-32.435,13.777-36.44,21.092
			c-7.237,13.217-18.09,21.544-40.547,26.45c-22.447,4.896-41.226,14.001-32.235,46.638c9.552,28.712,39.415,55.462,59.289,49.72
			C78.207,218.805,86.636,210.3,94.853,190.486z"/>
		<path style="fill:#B72138;" d="M86.388,206.84c-0.885,0.99-1.828,1.936-2.851,2.822c-1.843,1.597-3.761,3.176-5.741,4.6
			c-1.648,1.185-3.408,2.222-5.285,3.001c-7.114,2.954-15.335,2.123-22.412-0.493c-7.081-2.617-13.439-7.007-19.006-12.052
			c-5.494-4.98-10.353-10.706-14.396-16.921c-3.622-5.567-6.268-11.684-7.774-18.158c-1.514-6.507-1.975-13.505-0.17-20.004
			c0.85-3.062,2.225-5.977,4.18-8.49c2.342-3.01,5.43-5.184,8.782-6.948c8.334-4.388,17.729-6.043,26.657-8.78
			c4.624-1.418,9.192-3.126,13.325-5.671c2.217-1.365,4.324-2.913,6.274-4.639c1.976-1.749,3.724-3.706,5.39-5.748
			c2.919-3.577,5.354-7.493,7.991-11.273c1.16-1.663,2.412-3.414,3.432-5.268c-2.308,2.598-4.062,4.971-4.963,6.617
			c-7.237,13.217-18.09,21.544-40.547,26.45c-22.447,4.896-41.226,14.001-32.235,46.638c9.552,28.712,39.415,55.462,59.289,49.72
			C74.221,219.96,80.591,215.432,86.388,206.84z"/>
		<g>
			<g>
				<g>
					<g>
						
							<rect x="279.991" y="7.16" transform="matrix(0.988 -0.1545 0.1545 0.988 1.2385 43.5525)" style="fill:#A9ABAE;" width="1.75" height="13.292"/>
						<path style="fill:#57595B;" d="M280.881,20.714l-2.109-13.485l2.079-0.327l2.105,13.48L280.881,20.714z M279.176,7.523
							l1.999,12.786l1.378-0.221l-1.996-12.782L279.176,7.523z"/>
					</g>
					<g style="opacity:0.5;">
						<g>
							<path style="fill:#A9ABAE;" d="M279.558,8.14c0.782,0.155,0.882-0.003,1.238-0.302l-0.111-0.665l-1.711,0.203l2.054,13.135
								l0.396-0.066L279.558,8.14z"/>
							<path style="fill:#57595B;" d="M280.881,20.715l-2.11-13.493l2.061-0.245l0.155,0.931l-0.158,0.133
								c-0.3,0.257-0.488,0.39-1.06,0.313l1.855,12.236L280.881,20.715z M279.177,7.53l1.998,12.777l0.047-0.008l-1.877-12.382
								l0.247,0.049c0.636,0.126,0.729,0.045,1.007-0.193l0.006-0.005l-0.067-0.4L279.177,7.53z"/>
						</g>
					</g>
				</g>
				<g>
					<path style="fill:#A9ABAE;" d="M281.916,5.32c0.097,1.069-0.853,2.034-2.125,2.143c-1.265,0.122-2.377-0.651-2.47-1.727
						c-0.1-1.068,0.845-2.037,2.118-2.148C280.704,3.466,281.819,4.244,281.916,5.32z"/>
					<path style="fill:#57595B;" d="M279.529,7.653c-0.624,0-1.221-0.204-1.669-0.577c-0.418-0.348-0.672-0.818-0.716-1.325
						c-0.047-0.505,0.119-1.014,0.469-1.433c0.428-0.513,1.088-0.843,1.811-0.906c0.719-0.071,1.429,0.135,1.945,0.563
						c0.421,0.349,0.677,0.82,0.723,1.328l0,0c0.046,0.505-0.121,1.014-0.471,1.431c-0.43,0.513-1.091,0.842-1.815,0.904
						C279.713,7.648,279.621,7.653,279.529,7.653z M279.7,3.753c-0.081,0-0.162,0.004-0.244,0.012
						c-0.631,0.055-1.204,0.339-1.572,0.78c-0.289,0.346-0.426,0.763-0.388,1.175c0.036,0.413,0.245,0.797,0.59,1.084
						c0.442,0.368,1.057,0.544,1.687,0.483c0.633-0.054,1.207-0.338,1.576-0.779c0.289-0.345,0.427-0.761,0.39-1.172v0
						c-0.037-0.413-0.249-0.8-0.597-1.088C280.757,3.928,280.241,3.753,279.7,3.753z"/>
				</g>
				<g>
					<g style="opacity:0.5;">
						<path style="fill:#A9ABAE;" d="M281.916,5.32c-0.097-1.076-1.211-1.854-2.477-1.731c-1.274,0.111-2.218,1.08-2.118,2.148
							c0.093,1.076,1.205,1.849,2.47,1.727C281.063,7.354,282.013,6.389,281.916,5.32z M280.03,6.945
							c-1.043,0.097-1.963-0.546-2.035-1.426c-0.082-0.881,0.7-1.68,1.746-1.776c1.05-0.096,1.963,0.549,2.047,1.426
							C281.862,6.063,281.086,6.849,280.03,6.945z"/>
						<path style="fill:#57595B;" d="M279.529,7.653c-0.624,0-1.221-0.204-1.669-0.577c-0.418-0.348-0.672-0.818-0.716-1.325
							c-0.047-0.505,0.119-1.014,0.469-1.433c0.428-0.513,1.088-0.843,1.811-0.906c0.719-0.071,1.429,0.135,1.945,0.563
							c0.421,0.349,0.677,0.82,0.723,1.328l0,0c0.046,0.505-0.121,1.014-0.471,1.431c-0.43,0.513-1.091,0.842-1.815,0.904
							C279.713,7.648,279.621,7.653,279.529,7.653z M278.512,4.041c-0.243,0.13-0.457,0.3-0.628,0.504
							c-0.289,0.346-0.426,0.763-0.388,1.175c0.036,0.413,0.245,0.797,0.59,1.084c0.442,0.368,1.057,0.544,1.687,0.483
							c0.471-0.04,0.908-0.208,1.254-0.472c-0.283,0.164-0.616,0.273-0.981,0.306c-0.607,0.056-1.203-0.119-1.634-0.481
							c-0.348-0.293-0.559-0.686-0.594-1.106c-0.044-0.477,0.134-0.947,0.5-1.321C278.38,4.152,278.444,4.094,278.512,4.041z
							 M279.948,3.911c-0.063,0-0.126,0.003-0.19,0.009c-0.464,0.042-0.885,0.235-1.186,0.541c-0.293,0.298-0.435,0.668-0.4,1.042
							c0.027,0.328,0.193,0.635,0.469,0.866c0.359,0.302,0.862,0.447,1.374,0.4h0c0.962-0.088,1.664-0.785,1.598-1.586
							C281.542,4.455,280.814,3.911,279.948,3.911z"/>
					</g>
				</g>
				<path style="fill:#FFFFFF;" d="M281.539,5.338c-0.155,0.186-1.735-1.167-1.568-1.353c0.151-0.18,0.634-0.03,1.074,0.341
					C281.475,4.689,281.704,5.156,281.539,5.338z"/>
			</g>
			<g>
				<g>
					<g>
						
							<rect x="273.94" y="7.915" transform="matrix(0.988 -0.1544 0.1544 0.988 1.0457 42.5925)" style="fill:#A9ABAE;" width="1.744" height="13.294"/>
						<path style="fill:#57595B;" d="M274.829,21.466L272.723,7.98l2.075-0.32l2.102,13.483L274.829,21.466z M273.126,8.276
							l1.998,12.787l1.372-0.214l-1.993-12.785L273.126,8.276z"/>
					</g>
					<g style="opacity:0.5;">
						<g>
							<path style="fill:#A9ABAE;" d="M273.505,8.899c0.786,0.152,0.886-0.009,1.237-0.307l-0.109-0.663l-1.709,0.199l2.052,13.136
								l0.398-0.062L273.505,8.899z"/>
							<path style="fill:#57595B;" d="M274.829,21.466l-2.108-13.493l2.059-0.239l0.152,0.928l-0.156,0.134
								c-0.298,0.259-0.486,0.393-1.06,0.317l1.859,12.236L274.829,21.466z M273.128,8.282l1.997,12.78l0.049-0.008l-1.88-12.376
								l0.246,0.047c0.638,0.123,0.738,0.036,1.006-0.197l0.007-0.006l-0.066-0.399L273.128,8.282z"/>
						</g>
					</g>
				</g>
				<g>
					<path style="fill:#A9ABAE;" d="M275.862,6.074c0.101,1.073-0.851,2.036-2.118,2.148c-1.267,0.124-2.376-0.655-2.483-1.732
						c-0.093-1.067,0.859-2.03,2.128-2.146C274.664,4.227,275.767,5,275.862,6.074z"/>
					<path style="fill:#57595B;" d="M273.479,8.412c-1.239,0-2.287-0.811-2.395-1.905c-0.102-1.166,0.925-2.214,2.288-2.34
						c0.728-0.066,1.439,0.141,1.951,0.568c0.416,0.347,0.67,0.817,0.715,1.323c0.047,0.505-0.118,1.013-0.466,1.43
						c-0.428,0.514-1.089,0.845-1.813,0.909C273.665,8.407,273.572,8.412,273.479,8.412z M273.641,4.509
						c-0.078,0-0.157,0.004-0.236,0.011c-1.17,0.108-2.053,0.985-1.968,1.955c0.097,0.979,1.124,1.687,2.29,1.572
						c0.633-0.056,1.206-0.341,1.574-0.783c0.287-0.345,0.424-0.761,0.386-1.172V6.09c-0.036-0.412-0.246-0.796-0.589-1.083
						C274.711,4.685,274.191,4.509,273.641,4.509z"/>
				</g>
				<g>
					<g style="opacity:0.5;">
						<path style="fill:#A9ABAE;" d="M275.862,6.074c-0.095-1.074-1.198-1.848-2.473-1.731c-1.269,0.117-2.222,1.08-2.128,2.146
							c0.106,1.078,1.215,1.856,2.483,1.732C275.01,8.11,275.962,7.147,275.862,6.074z M273.984,7.701
							c-1.046,0.102-1.954-0.537-2.04-1.425c-0.081-0.885,0.7-1.675,1.751-1.774c1.043-0.093,1.955,0.546,2.04,1.428
							C275.817,6.818,275.03,7.608,273.984,7.701z"/>
						<path style="fill:#57595B;" d="M273.479,8.412c-1.239,0-2.287-0.811-2.395-1.905c-0.102-1.166,0.925-2.214,2.288-2.34
							c0.728-0.066,1.439,0.141,1.951,0.568c0.416,0.347,0.67,0.817,0.715,1.323c0.047,0.505-0.118,1.013-0.466,1.43
							c-0.428,0.514-1.089,0.845-1.813,0.909C273.665,8.407,273.572,8.412,273.479,8.412z M272.478,4.79
							c-0.673,0.353-1.101,0.995-1.041,1.685c0.097,0.979,1.124,1.687,2.29,1.572c0.476-0.042,0.918-0.214,1.264-0.484
							c-0.292,0.173-0.632,0.283-0.99,0.315c-0.547,0.054-1.079-0.079-1.498-0.372c-0.427-0.299-0.688-0.729-0.735-1.211
							C271.714,5.71,271.997,5.161,272.478,4.79z M273.895,4.67c-0.061,0-0.123,0.003-0.185,0.008
							c-0.949,0.09-1.663,0.799-1.591,1.582c0.036,0.376,0.245,0.716,0.586,0.955c0.35,0.245,0.798,0.355,1.262,0.31l0.001,0
							c0.515-0.046,0.981-0.278,1.28-0.636c0.231-0.277,0.341-0.612,0.31-0.942C275.487,5.215,274.759,4.67,273.895,4.67z"/>
					</g>
				</g>
				<path style="fill:#FFFFFF;" d="M275.495,6.097c-0.165,0.184-1.739-1.167-1.582-1.352c0.168-0.189,0.644-0.036,1.087,0.338
					C275.427,5.455,275.657,5.909,275.495,6.097z"/>
			</g>
			<g>
				<g>
					<g>
						
							<rect x="268.303" y="9.066" transform="matrix(0.9804 -0.1969 0.1969 0.9804 2.1762 53.3113)" style="fill:#A9ABAE;" width="1.747" height="13.293"/>
						<path style="fill:#57595B;" d="M269.491,22.608l-2.688-13.382l2.065-0.408l2.679,13.378L269.491,22.608z M267.219,9.504
							l2.548,12.688l1.363-0.273l-2.54-12.685L267.219,9.504z"/>
					</g>
					<g style="opacity:0.5;">
						<g>
							<path style="fill:#A9ABAE;" d="M267.623,10.103c0.8,0.125,0.887-0.045,1.226-0.352l-0.134-0.662l-1.704,0.277l2.618,13.035
								l0.397-0.085L267.623,10.103z"/>
							<path style="fill:#57595B;" d="M269.491,22.61l-2.689-13.39l2.052-0.333l0.189,0.927l-0.16,0.147
								c-0.276,0.258-0.463,0.401-1.038,0.348l2.389,12.143L269.491,22.61z M267.22,9.51l2.547,12.68l0.052-0.011l-2.418-12.29
								l0.249,0.039c0.642,0.101,0.736,0.011,0.991-0.226l0.015-0.014l-0.081-0.398L267.22,9.51z"/>
						</g>
					</g>
				</g>
				<g>
					<path style="fill:#A9ABAE;" d="M269.859,7.185c0.139,1.066-0.76,2.07-2.028,2.238c-1.262,0.173-2.404-0.556-2.55-1.623
						c-0.142-1.07,0.77-2.069,2.028-2.242C268.581,5.391,269.72,6.115,269.859,7.185z"/>
					<path style="fill:#57595B;" d="M267.458,9.626c-0.512,0-1.004-0.137-1.416-0.4c-0.526-0.335-0.859-0.833-0.936-1.402
						c-0.154-1.16,0.823-2.255,2.179-2.441c0.73-0.096,1.453,0.083,1.984,0.491c0.428,0.329,0.7,0.787,0.765,1.288
						c0.152,1.164-0.826,2.257-2.18,2.436C267.721,9.617,267.589,9.626,267.458,9.626z M267.673,5.711
						c-0.113,0-0.227,0.007-0.341,0.022c-1.163,0.16-2.005,1.077-1.876,2.044c0.063,0.463,0.339,0.872,0.776,1.151
						c0.447,0.285,1.005,0.398,1.574,0.32c1.162-0.154,2.004-1.069,1.877-2.04l0,0c-0.053-0.408-0.277-0.782-0.63-1.054
						C268.678,5.866,268.188,5.711,267.673,5.711z"/>
				</g>
				<g>
					<g style="opacity:0.5;">
						<path style="fill:#A9ABAE;" d="M269.859,7.185c-0.139-1.07-1.277-1.795-2.549-1.627c-1.258,0.173-2.171,1.172-2.028,2.242
							c0.146,1.067,1.287,1.796,2.55,1.623C269.099,9.256,269.998,8.251,269.859,7.185z M268.047,8.893
							c-1.037,0.143-1.981-0.463-2.098-1.34c-0.112-0.878,0.631-1.711,1.675-1.849c1.04-0.139,1.98,0.458,2.091,1.339
							C269.841,7.926,269.094,8.753,268.047,8.893z"/>
						<path style="fill:#57595B;" d="M267.458,9.626c-0.512,0-1.004-0.137-1.416-0.4c-0.526-0.335-0.859-0.833-0.936-1.402
							c-0.154-1.16,0.823-2.255,2.179-2.441c0.73-0.096,1.453,0.083,1.984,0.491c0.428,0.329,0.7,0.787,0.765,1.288
							c0.152,1.164-0.826,2.257-2.18,2.436C267.721,9.617,267.589,9.626,267.458,9.626z M266.414,6.049
							c-0.652,0.384-1.049,1.043-0.958,1.729c0.063,0.463,0.339,0.872,0.776,1.151c0.447,0.285,1.005,0.398,1.574,0.32
							c0.484-0.064,0.912-0.26,1.237-0.536c-0.283,0.184-0.617,0.309-0.974,0.356c-0.598,0.082-1.197-0.065-1.643-0.405
							c-0.365-0.278-0.597-0.664-0.653-1.087C265.7,6.997,265.957,6.439,266.414,6.049z M267.923,5.861
							c-0.091,0-0.183,0.006-0.276,0.019c-0.94,0.124-1.623,0.865-1.523,1.651c0.044,0.328,0.227,0.631,0.517,0.851
							c0.372,0.283,0.875,0.406,1.381,0.336l0,0c0.515-0.069,0.971-0.322,1.253-0.694c0.217-0.287,0.311-0.626,0.264-0.955
							c-0.042-0.33-0.22-0.63-0.504-0.849C268.733,5.987,268.338,5.861,267.923,5.861z"/>
					</g>
				</g>
				<path style="fill:#FFFFFF;" d="M269.486,7.217c-0.151,0.191-1.784-1.088-1.633-1.283c0.155-0.191,0.646-0.056,1.092,0.299
					C269.397,6.581,269.638,7.019,269.486,7.217z"/>
			</g>
			<g>
				<g>
					<g>
						
							<rect x="262.685" y="10.556" transform="matrix(0.9699 -0.2434 0.2434 0.9699 3.7393 64.6669)" style="fill:#A9ABAE;" width="1.751" height="13.29"/>
						<path style="fill:#57595B;" d="M264.2,24.074l-3.32-13.231l2.038-0.516l3.325,13.234L264.2,24.074z M261.309,11.099
							l3.148,12.546l1.357-0.341l-3.153-12.548L261.309,11.099z"/>
					</g>
					<g style="opacity:0.5;">
						<g>
							<path style="fill:#A9ABAE;" d="M261.746,11.681c0.8,0.076,0.878-0.091,1.203-0.414l-0.162-0.655l-1.692,0.359l3.234,12.888
								l0.399-0.098L261.746,11.681z"/>
							<path style="fill:#57595B;" d="M264.2,24.073l-3.321-13.237l2.039-0.433l0.227,0.918l-0.151,0.151
								c-0.27,0.276-0.442,0.423-1.018,0.401l2.966,12.018L264.2,24.073z M261.311,11.106l3.147,12.54l0.056-0.014l-2.999-12.151
								l0.248,0.024c0.645,0.061,0.736-0.032,0.978-0.28l0.012-0.012l-0.097-0.393L261.311,11.106z"/>
						</g>
					</g>
				</g>
				<g>
					<path style="fill:#A9ABAE;" d="M263.837,8.651c0.193,1.067-0.666,2.104-1.914,2.334c-1.256,0.235-2.433-0.436-2.63-1.497
						c-0.19-1.054,0.667-2.102,1.922-2.331C262.469,6.923,263.639,7.589,263.837,8.651z"/>
					<path style="fill:#57595B;" d="M261.423,11.208c-0.534,0-1.047-0.15-1.462-0.435c-0.449-0.308-0.748-0.753-0.841-1.253
						c-0.208-1.154,0.718-2.291,2.064-2.537c0.647-0.121,1.296-0.021,1.826,0.281c0.54,0.308,0.896,0.789,1.001,1.354l0,0.001
						c0.208,1.153-0.714,2.292-2.056,2.539C261.778,11.192,261.599,11.208,261.423,11.208z M261.72,7.287
						c-0.156,0-0.313,0.015-0.471,0.044c-1.155,0.211-1.954,1.164-1.78,2.126c0.076,0.406,0.321,0.771,0.693,1.026
						c0.475,0.326,1.106,0.446,1.73,0.329c1.151-0.212,1.946-1.167,1.773-2.128c-0.086-0.462-0.38-0.856-0.828-1.111
						C262.505,7.384,262.12,7.287,261.72,7.287z"/>
				</g>
				<g>
					<g style="opacity:0.5;">
						<path style="fill:#A9ABAE;" d="M263.837,8.651c-0.198-1.062-1.368-1.728-2.622-1.494c-1.255,0.229-2.112,1.277-1.922,2.331
							c0.197,1.061,1.374,1.732,2.63,1.497C263.171,10.755,264.03,9.718,263.837,8.651z M262.111,10.443
							c-1.032,0.191-1.999-0.357-2.161-1.235c-0.164-0.873,0.542-1.738,1.577-1.917c1.033-0.194,2.009,0.362,2.167,1.227
							C263.859,9.394,263.146,10.261,262.111,10.443z"/>
						<path style="fill:#57595B;" d="M261.423,11.208c-0.534,0-1.047-0.15-1.462-0.435c-0.449-0.308-0.748-0.753-0.841-1.253
							c-0.208-1.154,0.718-2.291,2.064-2.537c0.647-0.121,1.296-0.021,1.826,0.281c0.54,0.308,0.896,0.789,1.001,1.354l0,0.001
							c0.208,1.153-0.714,2.292-2.056,2.539C261.778,11.192,261.599,11.208,261.423,11.208z M260.301,7.715
							c-0.607,0.414-0.953,1.076-0.833,1.741c0.076,0.406,0.321,0.771,0.693,1.026c0.475,0.326,1.106,0.446,1.73,0.329
							c0.47-0.087,0.88-0.297,1.19-0.581c-0.271,0.191-0.593,0.326-0.939,0.387c-0.54,0.1-1.082,0.016-1.526-0.237
							c-0.454-0.259-0.753-0.664-0.84-1.14c-0.079-0.422,0.022-0.863,0.284-1.241C260.13,7.898,260.211,7.803,260.301,7.715z
							 M261.94,7.429c-0.126,0-0.254,0.012-0.381,0.036c-0.505,0.087-0.945,0.355-1.21,0.736c-0.208,0.299-0.288,0.645-0.227,0.975
							c0.069,0.372,0.306,0.691,0.668,0.897c0.371,0.211,0.829,0.281,1.287,0.196l0.001,0c0.506-0.089,0.949-0.361,1.215-0.745
							c0.207-0.299,0.287-0.644,0.225-0.972c-0.059-0.323-0.256-0.614-0.554-0.818C262.676,7.534,262.316,7.429,261.94,7.429z"/>
					</g>
				</g>
				<path style="fill:#FFFFFF;" d="M263.468,8.708c-0.145,0.199-1.833-1.004-1.689-1.205c0.141-0.199,0.628-0.093,1.102,0.239
					C263.342,8.074,263.609,8.506,263.468,8.708z"/>
			</g>
			<g>
				<g>
					<g>
						<polygon style="fill:#A9ABAE;" points="254.729,12.935 257.979,25.821 259.672,25.397 256.421,12.511 						"/>
						<path style="fill:#57595B;" d="M257.851,26.036l-3.337-13.229l2.036-0.51l3.337,13.229L257.851,26.036z M254.943,13.064
							l3.164,12.543l1.35-0.338l-3.164-12.543L254.943,13.064z"/>
					</g>
					<g style="opacity:0.5;">
						<g>
							<path style="fill:#A9ABAE;" d="M255.38,13.645c0.79,0.074,0.878-0.088,1.204-0.412l-0.169-0.656l-1.686,0.359l3.25,12.886
								l0.391-0.101L255.38,13.645z"/>
							<path style="fill:#57595B;" d="M257.851,26.037l-3.339-13.236l2.031-0.432l0.236,0.919l-0.142,0.142
								c-0.276,0.28-0.455,0.429-1.029,0.409l2.974,12.01L257.851,26.037z M254.945,13.07l3.162,12.536l0.049-0.013l-3.008-12.147
								l0.248,0.023c0.646,0.061,0.733-0.027,0.99-0.289l0.001-0.001l-0.101-0.395L254.945,13.07z"/>
						</g>
					</g>
				</g>
				<g>
					<path style="fill:#A9ABAE;" d="M257.469,10.623c0.197,1.052-0.66,2.1-1.91,2.331c-1.257,0.23-2.43-0.436-2.63-1.497
						c-0.194-1.057,0.664-2.103,1.921-2.336C256.094,8.886,257.271,9.557,257.469,10.623z"/>
					<path style="fill:#57595B;" d="M255.069,13.176c-1.14,0-2.126-0.686-2.314-1.686c-0.212-1.152,0.714-2.292,2.063-2.543
						c0.707-0.134,1.428,0.005,1.978,0.381c0.452,0.309,0.753,0.758,0.847,1.262c0.092,0.495-0.026,1.014-0.332,1.461
						c-0.379,0.552-1.005,0.944-1.72,1.077C255.415,13.161,255.24,13.176,255.069,13.176z M255.348,9.251
						c-0.154,0-0.31,0.015-0.465,0.044c-1.158,0.215-1.957,1.171-1.78,2.13c0.181,0.958,1.268,1.567,2.424,1.355
						c0.622-0.115,1.166-0.454,1.492-0.929c0.253-0.369,0.351-0.794,0.276-1.196v0c-0.076-0.411-0.324-0.779-0.699-1.035
						C256.242,9.379,255.804,9.251,255.348,9.251z"/>
				</g>
				<g>
					<g style="opacity:0.5;">
						<path style="fill:#A9ABAE;" d="M257.469,10.623c-0.198-1.066-1.375-1.738-2.619-1.502c-1.257,0.233-2.115,1.279-1.921,2.336
							c0.2,1.061,1.373,1.727,2.63,1.497C256.808,12.723,257.665,11.675,257.469,10.623z M255.744,12.413
							c-1.033,0.191-1.992-0.362-2.162-1.236c-0.156-0.867,0.551-1.733,1.58-1.925c1.028-0.197,1.997,0.358,2.164,1.235
							C257.485,11.355,256.783,12.223,255.744,12.413z"/>
						<path style="fill:#57595B;" d="M255.069,13.176c-1.14,0-2.126-0.686-2.314-1.686c-0.212-1.152,0.714-2.292,2.063-2.543
							c0.707-0.134,1.428,0.005,1.978,0.381c0.452,0.309,0.753,0.758,0.847,1.262c0.092,0.495-0.026,1.014-0.332,1.461
							c-0.379,0.552-1.005,0.944-1.72,1.077C255.415,13.161,255.24,13.176,255.069,13.176z M253.968,9.66
							c-0.629,0.414-0.99,1.089-0.865,1.766c0.181,0.958,1.268,1.567,2.424,1.355c0.469-0.087,0.893-0.301,1.214-0.604
							c-0.276,0.203-0.606,0.345-0.964,0.411l0,0c-1.118,0.207-2.179-0.41-2.368-1.377C253.305,10.639,253.533,10.072,253.968,9.66z
							 M255.577,9.389c-0.126,0-0.254,0.012-0.382,0.037c-0.934,0.174-1.579,0.945-1.439,1.72c0.151,0.774,1.029,1.266,1.956,1.094
							h0c0.46-0.084,0.863-0.314,1.135-0.647c0.264-0.323,0.372-0.705,0.304-1.073c-0.063-0.331-0.265-0.627-0.568-0.834
							C256.298,9.491,255.944,9.389,255.577,9.389z"/>
					</g>
				</g>
				<path style="fill:#FFFFFF;" d="M257.099,10.671c-0.143,0.2-1.834-1.005-1.697-1.2c0.145-0.204,0.637-0.093,1.107,0.233
					C256.977,10.04,257.242,10.468,257.099,10.671z"/>
			</g>
			<g>
				<g>
					<g>
						
							<rect x="250.234" y="14.845" transform="matrix(0.9504 -0.3111 0.3111 0.9504 5.7753 79.1847)" style="fill:#A9ABAE;" width="1.749" height="13.288"/>
						<path style="fill:#57595B;" d="M252.232,28.299l-4.244-12.966l1.997-0.653l4.245,12.962L252.232,28.299z M248.434,15.559
							l4.024,12.293l1.326-0.436l-4.025-12.291L248.434,15.559z"/>
					</g>
					<g style="opacity:0.5;">
						<g>
							<path style="fill:#A9ABAE;" d="M248.909,16.111c0.796,0.02,0.87-0.152,1.169-0.499l-0.21-0.641l-1.657,0.475l4.134,12.63
								l0.388-0.131L248.909,16.111z"/>
							<path style="fill:#57595B;" d="M252.232,28.3l-4.247-12.973l1.997-0.573l0.295,0.898l-0.133,0.155
								c-0.253,0.3-0.417,0.461-0.993,0.48l3.803,11.77L252.232,28.3z M248.436,15.565l4.021,12.286l0.053-0.018l-3.847-11.905
								l0.249,0.006c0.647,0.018,0.732-0.085,0.961-0.355l0.005-0.005l-0.126-0.385L248.436,15.565z"/>
						</g>
					</g>
				</g>
				<g>
					<path style="fill:#A9ABAE;" d="M250.778,12.943c0.272,1.043-0.51,2.143-1.746,2.461c-1.239,0.32-2.449-0.264-2.722-1.308
						c-0.268-1.046,0.512-2.148,1.749-2.463C249.295,11.314,250.513,11.902,250.778,12.943z"/>
					<path style="fill:#57595B;" d="M248.362,15.666c-1.053,0-1.979-0.599-2.222-1.527c-0.127-0.495-0.044-1.025,0.234-1.494
						c0.34-0.574,0.939-1.006,1.643-1.185c0.706-0.181,1.442-0.09,2.017,0.251c0.466,0.276,0.791,0.698,0.916,1.187
						c0.128,0.491,0.047,1.017-0.228,1.484c-0.339,0.575-0.939,1.01-1.645,1.191C248.836,15.637,248.596,15.666,248.362,15.666z
						 M248.734,11.722c-0.208,0-0.421,0.027-0.631,0.081c-0.614,0.157-1.134,0.529-1.426,1.023
						c-0.229,0.387-0.299,0.822-0.196,1.225c0.247,0.944,1.372,1.475,2.507,1.181c0.616-0.158,1.137-0.533,1.428-1.028
						c0.227-0.385,0.295-0.817,0.191-1.217l0-0.001c-0.102-0.398-0.369-0.743-0.754-0.971
						C249.526,11.822,249.138,11.722,248.734,11.722z"/>
				</g>
				<g>
					<g style="opacity:0.5;">
						<path style="fill:#A9ABAE;" d="M250.778,12.943c-0.265-1.041-1.483-1.629-2.718-1.311c-1.237,0.315-2.017,1.418-1.749,2.463
							c0.273,1.044,1.482,1.629,2.722,1.308C250.268,15.086,251.05,13.986,250.778,12.943z M249.176,14.857
							c-1.015,0.253-2.014-0.22-2.231-1.082c-0.223-0.865,0.416-1.775,1.434-2.039c1.026-0.254,2.026,0.22,2.247,1.083
							C250.844,13.678,250.203,14.584,249.176,14.857z"/>
						<path style="fill:#57595B;" d="M248.362,15.666c-1.053,0-1.979-0.599-2.222-1.527c-0.127-0.495-0.044-1.025,0.234-1.494
							c0.34-0.574,0.939-1.006,1.643-1.185c0.706-0.181,1.442-0.09,2.017,0.251c0.466,0.276,0.791,0.698,0.916,1.187
							c0.128,0.491,0.047,1.017-0.228,1.484c-0.339,0.575-0.939,1.01-1.645,1.191C248.836,15.637,248.596,15.666,248.362,15.666z
							 M247.219,12.226c-0.221,0.168-0.406,0.371-0.542,0.601c-0.229,0.387-0.299,0.822-0.196,1.225
							c0.247,0.944,1.372,1.475,2.507,1.181c0.465-0.12,0.876-0.363,1.175-0.688c-0.257,0.217-0.576,0.387-0.942,0.483l-0.003,0.001
							c-1.111,0.276-2.208-0.267-2.445-1.211C246.628,13.253,246.814,12.668,247.219,12.226z M248.925,11.846
							c-0.164,0-0.334,0.02-0.503,0.062c-0.917,0.237-1.503,1.055-1.306,1.823c0.19,0.756,1.094,1.184,2.016,0.955
							c0.922-0.245,1.516-1.063,1.323-1.823C250.297,12.245,249.659,11.846,248.925,11.846z"/>
					</g>
				</g>
				<path style="fill:#FFFFFF;" d="M250.416,13.023c-0.131,0.207-1.902-0.873-1.771-1.077c0.126-0.211,0.625-0.143,1.118,0.158
					C250.247,12.4,250.536,12.816,250.416,13.023z"/>
			</g>
		</g>
		<g>
			<path style="fill:#FFFEEE;" d="M102.863,120.263c0,0-3.448,8.202,9.685,22.689c5.825,6.425,11.15,8.283,17.554,9.203
				c6.404,0.912,7.157,6.595-4.26,11.572c-11.41,4.966-23.561,5.166-31.985,21.393c-3.447,6.642-6.385,13.805-10.298,20.177
				c-2.286,3.711-7.375,7.319-11.034,2.956c-2.233-2.661-2.076-6.582-2.251-9.858c-0.452-8.547-2.212-15.862-10.882-19.988
				c-4.832-2.649-17.205-15.513-16.412-24.94c0.714-7.349,9.073-8.282,13.269-9.391c4.194-1.101,13.899-2.998,19.841-8.449
				c5.939-5.449,9.107-10.648,11.696-15.118C90.37,116.025,98.971,107.301,102.863,120.263z"/>
			<path style="fill:#57595B;" d="M76.408,210.429c-1.52,0-2.87-0.692-4.018-2.062c-1.986-2.367-2.119-5.722-2.236-8.681
				c-0.017-0.435-0.034-0.863-0.056-1.281c-0.479-9.055-2.495-15.894-10.782-19.838c-2.376-1.303-6.699-5.146-10.38-9.981
				c-5.511-7.239-6.377-12.225-6.132-15.134c0.639-6.581,7.297-8.12,11.703-9.138c0.611-0.141,1.187-0.274,1.697-0.409
				c0.472-0.124,1.012-0.258,1.609-0.405c4.83-1.195,12.915-3.194,18.157-8.003c5.77-5.294,8.925-10.351,11.663-15.076
				c1.72-2.985,5.874-7.554,9.699-7.112c2.493,0.289,4.411,2.612,5.7,6.904l0.018,0.061l-0.024,0.059
				c-0.008,0.02-0.835,2.07-0.065,5.847c0.713,3.495,2.978,9.222,9.717,16.655c5.763,6.357,10.949,8.213,17.448,9.147
				c2.734,0.389,4.507,1.66,4.743,3.4c0.369,2.722-2.979,5.903-8.957,8.509c-2.574,1.12-5.218,2.01-7.776,2.87
				c-9.065,3.049-17.627,5.929-24.123,18.443c-1.236,2.382-2.428,4.876-3.582,7.289c-2.07,4.33-4.21,8.807-6.723,12.899
				c-1.451,2.355-4.155,4.822-6.926,5.025C76.657,210.425,76.532,210.429,76.408,210.429z M96.798,113.631
				c-3.518,0-7.259,4.189-8.859,6.966c-2.751,4.75-5.923,9.832-11.73,15.16c-5.309,4.87-13.448,6.883-18.311,8.086
				c-0.595,0.147-1.134,0.281-1.604,0.404c-0.515,0.136-1.094,0.27-1.707,0.412c-4.307,0.996-10.816,2.501-11.431,8.826
				c-0.765,9.094,11.247,21.986,16.321,24.768c8.435,4.014,10.488,10.952,10.974,20.133c0.022,0.419,0.039,0.85,0.057,1.286
				c0.114,2.903,0.244,6.193,2.153,8.468c1.165,1.389,2.542,2.035,4.097,1.923c2.647-0.193,5.247-2.579,6.651-4.858
				c2.504-4.076,4.639-8.545,6.705-12.867c1.154-2.415,2.348-4.912,3.587-7.299c6.562-12.641,15.19-15.543,24.325-18.615
				c2.55-0.858,5.188-1.745,7.747-2.859c5.824-2.539,9.095-5.581,8.748-8.137c-0.213-1.574-1.874-2.732-4.443-3.097
				c-6.577-0.945-11.826-2.824-17.66-9.26c-12.619-13.92-10.056-21.983-9.741-22.816c-1.244-4.107-3.055-6.325-5.384-6.596
				C97.128,113.64,96.963,113.631,96.798,113.631z"/>
		</g>
		<g>
			<g>
				<path style="fill:#A9ABAE;" d="M63.853,171.168c-1.045,0.265-2.112-0.367-2.386-1.426l-3.748-14.632
					c-0.266-1.055,0.367-2.129,1.419-2.396l0,0c1.051-0.272,2.131,0.366,2.394,1.42l3.746,14.633
					C65.548,169.824,64.91,170.892,63.853,171.168L63.853,171.168z"/>
				<path style="fill:#57595B;" d="M63.377,171.405c-0.954,0-1.83-0.648-2.081-1.618l-3.748-14.633
					c-0.29-1.15,0.404-2.321,1.547-2.611c0.556-0.143,1.134-0.061,1.63,0.234c0.493,0.294,0.841,0.761,0.979,1.315l3.746,14.632
					c0.291,1.142-0.404,2.315-1.552,2.615l-0.001,0C63.723,171.384,63.549,171.405,63.377,171.405z M59.632,152.828
					c-0.15,0-0.3,0.019-0.449,0.057c-0.955,0.242-1.534,1.221-1.292,2.182l3.748,14.632c0.248,0.956,1.223,1.539,2.171,1.299
					c0.959-0.251,1.542-1.232,1.298-2.186l-3.746-14.633c-0.115-0.464-0.406-0.853-0.818-1.098
					C60.262,152.913,59.949,152.828,59.632,152.828z"/>
			</g>
			<g>
				<path style="fill:#A9ABAE;" d="M84.905,157.313c-0.882,0.627-2.11,0.418-2.746-0.473l-8.714-12.332
					c-0.645-0.879-0.425-2.116,0.46-2.743l0,0c0.884-0.625,2.111-0.416,2.739,0.472l8.731,12.335
					C86.002,155.455,85.795,156.681,84.905,157.313L84.905,157.313z"/>
				<path style="fill:#57595B;" d="M83.776,157.85c-0.673,0-1.339-0.316-1.761-0.906l-8.714-12.333
					c-0.334-0.455-0.468-1.017-0.377-1.58c0.093-0.573,0.405-1.073,0.879-1.408c0.466-0.33,1.033-0.458,1.597-0.361
					c0.564,0.097,1.057,0.408,1.388,0.875l8.731,12.335c0.683,0.961,0.453,2.301-0.512,2.987l0,0
					C84.634,157.722,84.203,157.85,83.776,157.85z M75.034,141.583c-0.366,0-0.722,0.112-1.027,0.328
					c-0.396,0.28-0.657,0.698-0.734,1.176c-0.076,0.469,0.035,0.937,0.314,1.317l8.715,12.335c0.576,0.807,1.697,1.001,2.499,0.431
					c0.806-0.573,0.998-1.692,0.428-2.494l-8.731-12.335c-0.276-0.391-0.687-0.65-1.159-0.731
					C75.238,141.591,75.136,141.583,75.034,141.583z"/>
			</g>
			<g>
				<path style="fill:#A9ABAE;" d="M101.996,145.676c-0.883,0.633-2.11,0.418-2.733-0.464l-8.732-12.337
					c-0.628-0.884-0.414-2.113,0.465-2.74l0,0c0.891-0.63,2.113-0.417,2.749,0.47l8.728,12.334
					C103.098,143.823,102.887,145.049,101.996,145.676L101.996,145.676z"/>
				<path style="fill:#57595B;" d="M100.867,146.217c-0.119,0-0.239-0.01-0.358-0.03c-0.566-0.095-1.059-0.405-1.39-0.873
					l-8.732-12.337c-0.682-0.961-0.455-2.3,0.507-2.986c0.963-0.681,2.306-0.451,2.995,0.511l8.728,12.335
					c0.33,0.466,0.458,1.033,0.36,1.595c-0.098,0.564-0.41,1.057-0.879,1.387C101.734,146.081,101.306,146.217,100.867,146.217z
					 M92.128,129.952c-0.358,0-0.718,0.106-1.03,0.327c-0.803,0.573-0.993,1.691-0.423,2.493l8.733,12.337
					c0.276,0.391,0.688,0.649,1.16,0.729c0.468,0.079,0.94-0.03,1.326-0.307l0.001-0.001c0.392-0.276,0.653-0.688,0.734-1.159
					c0.081-0.469-0.026-0.942-0.301-1.331l-8.728-12.334C93.248,130.215,92.691,129.952,92.128,129.952z"/>
			</g>
			<g style="opacity:0.5;">
				<g>
					<g>
						<polygon style="fill:#A9ABAE;" points="240.727,44.797 233.433,34.478 233.632,34.328 240.946,44.648 						"/>
						<polygon style="fill:#57595B;" points="240.683,45.041 233.19,34.439 233.671,34.078 241.195,44.693 						"/>
					</g>
					<g>
						
							<rect x="218.909" y="45.746" transform="matrix(0.8162 -0.5778 0.5778 0.8162 10.0382 136.175)" style="fill:#A9ABAE;" width="0.257" height="13.13"/>
						
							<rect x="218.733" y="45.569" transform="matrix(0.8162 -0.5778 0.5778 0.8162 10.0385 136.1757)" style="fill:#57595B;" width="0.61" height="13.483"/>
					</g>
					<g>
						
							<rect x="203.845" y="55.882" transform="matrix(0.8164 -0.5775 0.5775 0.8164 1.2517 129.3008)" style="fill:#A9ABAE;" width="0.258" height="13.6"/>
						<polygon style="fill:#57595B;" points="207.75,68.549 199.696,57.163 200.193,56.811 208.258,68.204 						"/>
					</g>
					<g>
						<polygon style="fill:#A9ABAE;" points="192.643,79.128 184.653,67.829 184.863,67.683 192.853,78.982 						"/>
						<polygon style="fill:#57595B;" points="192.599,79.373 184.406,67.785 184.906,67.438 193.1,79.026 						"/>
					</g>
					<g>
						<polygon style="fill:#A9ABAE;" points="178.446,89.385 170.021,77.499 170.226,77.354 178.649,89.234 						"/>
						<polygon style="fill:#57595B;" points="178.407,89.635 169.775,77.457 170.268,77.108 178.893,89.272 						"/>
					</g>
					<g>
						<polygon style="fill:#A9ABAE;" points="166.857,97.779 158.303,85.699 158.512,85.555 167.06,97.632 						"/>
						<polygon style="fill:#57595B;" points="166.816,98.027 158.056,85.656 158.555,85.31 167.305,97.673 						"/>
					</g>
					<g>
						<polygon style="fill:#A9ABAE;" points="163.752,99.981 155.148,87.837 155.352,87.687 163.952,99.833 						"/>
						<polygon style="fill:#57595B;" points="163.711,100.23 154.903,87.798 155.392,87.438 164.196,99.873 						"/>
					</g>
					<g>
						<polygon style="fill:#A9ABAE;" points="148.999,110.424 140.19,97.987 140.392,97.838 149.203,110.274 						"/>
						<polygon style="fill:#57595B;" points="148.959,110.673 139.945,97.947 140.432,97.589 149.448,110.313 						"/>
					</g>
					<g>
						<polygon style="fill:#A9ABAE;" points="134.068,120.987 124.994,108.158 125.199,108.004 134.282,120.842 						"/>
						<polygon style="fill:#57595B;" points="134.024,121.231 124.75,108.12 125.238,107.754 134.53,120.887 						"/>
					</g>
					<g>
						<polygon style="fill:#A9ABAE;" points="123.709,128.327 114.494,115.296 114.699,115.148 123.916,128.174 						"/>
						<polygon style="fill:#57595B;" points="123.668,128.576 114.249,115.255 114.741,114.9 124.161,128.214 						"/>
					</g>
					<g>
						
							<rect x="115.622" y="116.348" transform="matrix(0.8163 -0.5776 0.5776 0.8163 -50.5494 89.6862)" style="fill:#A9ABAE;" width="0.256" height="15.96"/>
						<polygon style="fill:#57595B;" points="120.209,131.158 110.79,117.845 111.287,117.493 120.713,130.816 						"/>
					</g>
				</g>
				<g>
					<g>
						<polygon style="fill:#A9ABAE;" points="47.524,163.668 47.38,163.448 252.097,22.237 252.241,22.445 						"/>
						<polygon style="fill:#57595B;" points="47.475,163.917 47.138,163.401 252.142,21.992 252.488,22.49 						"/>
					</g>
					<g>
						<polygon style="fill:#A9ABAE;" points="49.135,165.938 48.999,165.729 258.392,21.315 258.529,21.526 						"/>
						<polygon style="fill:#57595B;" points="49.085,166.187 48.757,165.682 48.899,165.584 258.441,21.066 258.771,21.573 
							258.629,21.671 						"/>
					</g>
					<g>
						<polygon style="fill:#A9ABAE;" points="50.755,168.222 50.612,168.01 264.837,19.131 264.98,19.347 						"/>
						<polygon style="fill:#57595B;" points="50.709,168.469 50.367,167.965 50.511,167.865 264.884,18.883 265.223,19.393 
							265.081,19.492 						"/>
					</g>
					<g>
						<polygon style="fill:#A9ABAE;" points="52.362,170.503 52.228,170.297 270.224,17.965 270.37,18.171 						"/>
						<polygon style="fill:#57595B;" points="52.314,170.753 51.987,170.249 52.127,170.152 270.267,17.719 270.617,18.215 						
							"/>
					</g>
					<g>
						<polygon style="fill:#A9ABAE;" points="53.983,172.787 53.834,172.576 275.761,16.993 275.909,17.207 						"/>
						<polygon style="fill:#57595B;" points="53.941,173.033 53.587,172.533 53.733,172.431 275.805,16.747 276.155,17.251 
							276.011,17.352 						"/>
					</g>
					<g>
						<polygon style="fill:#A9ABAE;" points="55.6,175.056 55.452,174.856 281.082,15.721 281.234,15.932 						"/>
						<polygon style="fill:#57595B;" points="55.56,175.3 55.203,174.815 55.35,174.711 281.124,15.475 281.482,15.974 
							281.336,16.076 						"/>
					</g>
				</g>
			</g>
		</g>
		<g>
			<path style="fill:#A9ABAE;" d="M64.411,170.074c-1.057,0.264-2.127-0.363-2.393-1.418l-3.745-14.646
				c-0.266-1.047,0.373-2.116,1.42-2.394l0,0c1.054-0.26,2.125,0.373,2.393,1.427l3.745,14.64
				C66.106,168.73,65.46,169.807,64.411,170.074L64.411,170.074z"/>
			<path style="fill:#57595B;" d="M63.928,170.311c-0.961,0-1.838-0.645-2.081-1.611l-3.745-14.645
				c-0.289-1.136,0.405-2.306,1.547-2.609c1.15-0.282,2.319,0.414,2.609,1.554l3.745,14.64c0.143,0.546,0.063,1.119-0.227,1.612
				c-0.294,0.499-0.762,0.851-1.32,0.994l-0.001,0C64.278,170.29,64.102,170.311,63.928,170.311z M60.167,151.735
				c-0.143,0-0.287,0.017-0.432,0.053c-0.952,0.253-1.533,1.23-1.292,2.179l3.745,14.646c0.24,0.953,1.217,1.532,2.178,1.291
				c0.466-0.119,0.857-0.414,1.103-0.83c0.242-0.411,0.309-0.888,0.19-1.344l-3.745-14.641
				C61.709,152.278,60.972,151.735,60.167,151.735z"/>
		</g>
		<g>
			<path style="fill:#A9ABAE;" d="M85.459,156.222c-0.885,0.623-2.118,0.423-2.747-0.466l-8.728-12.331
				c-0.629-0.889-0.42-2.12,0.467-2.741l0,0c0.887-0.633,2.109-0.423,2.744,0.462l8.727,12.334
				C86.556,154.364,86.346,155.595,85.459,156.222L85.459,156.222z"/>
			<path style="fill:#57595B;" d="M84.319,156.76c-0.674,0-1.336-0.314-1.752-0.902l-8.728-12.331
				c-0.333-0.471-0.462-1.043-0.363-1.611c0.098-0.562,0.408-1.051,0.873-1.378c0.958-0.684,2.299-0.458,2.989,0.504l8.728,12.335
				c0.333,0.464,0.464,1.031,0.369,1.596c-0.095,0.566-0.406,1.061-0.875,1.393l0,0C85.183,156.632,84.749,156.76,84.319,156.76z
				 M75.586,140.497c-0.359,0-0.72,0.107-1.033,0.33c-0.389,0.272-0.647,0.68-0.729,1.149c-0.082,0.474,0.025,0.952,0.304,1.346
				l8.728,12.331c0.568,0.804,1.69,0.994,2.501,0.424c0.391-0.277,0.651-0.69,0.73-1.162c0.079-0.471-0.03-0.944-0.309-1.332
				l-8.728-12.335C76.7,140.758,76.146,140.497,75.586,140.497z"/>
		</g>
		<g>
			<path style="fill:#A9ABAE;" d="M102.551,144.587c-0.891,0.63-2.113,0.421-2.747-0.466l-8.729-12.336
				c-0.632-0.887-0.411-2.109,0.478-2.735l0,0c0.88-0.639,2.106-0.424,2.74,0.465l8.73,12.329
				C103.642,142.736,103.441,143.958,102.551,144.587L102.551,144.587z"/>
			<path style="fill:#57595B;" d="M101.417,145.124c-0.673,0-1.337-0.314-1.756-0.901l-8.729-12.337
				c-0.33-0.462-0.459-1.026-0.363-1.586c0.097-0.567,0.411-1.062,0.884-1.395c0.456-0.331,1.015-0.465,1.576-0.373
				c0.571,0.093,1.071,0.405,1.41,0.88l8.73,12.33c0.674,0.972,0.443,2.312-0.515,2.989
				C102.278,144.996,101.846,145.124,101.417,145.124z M92.684,128.857c-0.368,0-0.724,0.115-1.027,0.335
				c-0.398,0.28-0.66,0.694-0.741,1.167c-0.08,0.466,0.028,0.936,0.303,1.321l8.729,12.337c0.573,0.802,1.695,0.993,2.501,0.424l0,0
				c0.8-0.565,0.992-1.686,0.429-2.497l-8.729-12.328c-0.283-0.397-0.702-0.658-1.178-0.736
				C92.875,128.865,92.78,128.857,92.684,128.857z"/>
		</g>
		<g>
			<g>
				<path style="fill:#A9ABAE;" d="M77.742,139.284c-0.4,0.283-0.959,0.186-1.237-0.214c-0.283-0.4-0.185-0.958,0.207-1.235
					c0.405-0.292,0.961-0.197,1.245,0.205C78.239,138.447,78.142,139.001,77.742,139.284z"/>
				<path style="fill:#57595B;" d="M77.233,139.624c-0.063,0-0.126-0.006-0.189-0.017c-0.281-0.05-0.523-0.204-0.684-0.436
					c-0.163-0.23-0.227-0.512-0.179-0.794c0.048-0.281,0.2-0.524,0.429-0.686c0.232-0.168,0.517-0.235,0.799-0.188
					c0.281,0.047,0.527,0.201,0.693,0.435c0.336,0.485,0.22,1.153-0.257,1.49l0,0C77.663,139.557,77.451,139.624,77.233,139.624z
					 M77.234,137.842c-0.149,0-0.294,0.047-0.418,0.137c-0.153,0.108-0.254,0.27-0.286,0.458c-0.032,0.188,0.01,0.377,0.12,0.532
					c0.108,0.155,0.269,0.258,0.456,0.291c0.189,0.034,0.379-0.009,0.535-0.119l0,0c0.319-0.226,0.396-0.674,0.171-0.999
					c-0.109-0.155-0.273-0.258-0.461-0.289C77.312,137.845,77.272,137.842,77.234,137.842z"/>
			</g>
			<g>
				<path style="fill:#A9ABAE;" d="M95.346,118.886c-0.394,0.287-0.944,0.188-1.231-0.218c-0.29-0.395-0.186-0.951,0.209-1.236
					c0.407-0.282,0.958-0.188,1.233,0.217C95.851,118.049,95.756,118.599,95.346,118.886z"/>
				<path style="fill:#57595B;" d="M94.844,119.227c-0.056,0-0.113-0.004-0.17-0.014c-0.284-0.047-0.534-0.204-0.703-0.443
					c-0.162-0.221-0.229-0.496-0.186-0.773c0.044-0.283,0.203-0.541,0.435-0.708c0.242-0.168,0.53-0.23,0.812-0.178
					c0.275,0.051,0.513,0.207,0.671,0.439c0.165,0.225,0.233,0.505,0.188,0.783c-0.046,0.282-0.203,0.53-0.442,0.697
					C95.271,119.159,95.061,119.227,94.844,119.227z M94.837,117.446c-0.145,0-0.288,0.045-0.413,0.131
					c-0.153,0.111-0.26,0.284-0.29,0.474c-0.029,0.183,0.015,0.365,0.123,0.512c0.116,0.164,0.283,0.27,0.474,0.301
					c0.18,0.029,0.363-0.014,0.511-0.121l0.003-0.002c0.161-0.112,0.266-0.278,0.297-0.466c0.03-0.184-0.015-0.369-0.127-0.522
					c-0.108-0.159-0.265-0.261-0.447-0.295C94.924,117.45,94.881,117.446,94.837,117.446z"/>
			</g>
			<g>
				<path style="fill:#A9ABAE;" d="M130.962,157.25c-0.4,0.283-0.951,0.19-1.242-0.213c-0.279-0.403-0.191-0.957,0.209-1.236
					c0.403-0.29,0.958-0.188,1.246,0.211C131.461,156.415,131.362,156.968,130.962,157.25z"/>
				<path style="fill:#57595B;" d="M130.454,157.588c-0.335,0-0.666-0.156-0.877-0.447c-0.338-0.488-0.224-1.153,0.251-1.485
					c0.474-0.341,1.144-0.229,1.491,0.252c0.34,0.481,0.226,1.147-0.254,1.487l0,0C130.88,157.525,130.666,157.588,130.454,157.588z
					 M130.443,155.812c-0.143,0-0.287,0.043-0.41,0.132c-0.318,0.222-0.392,0.667-0.167,0.992c0.233,0.323,0.671,0.398,0.995,0.169
					l0,0c0.321-0.227,0.397-0.672,0.171-0.993C130.889,155.917,130.667,155.812,130.443,155.812z"/>
			</g>
			<g>
				<path style="fill:#A9ABAE;" d="M101.19,172.833c-0.407,0.282-0.96,0.194-1.243-0.215c-0.284-0.393-0.19-0.955,0.206-1.235
					c0.406-0.287,0.958-0.189,1.243,0.213C101.676,171.998,101.59,172.551,101.19,172.833z"/>
				<path style="fill:#57595B;" d="M100.674,173.172c-0.338,0-0.668-0.158-0.872-0.453c-0.163-0.225-0.228-0.507-0.181-0.789
					c0.047-0.283,0.2-0.528,0.431-0.691c0.481-0.34,1.149-0.226,1.489,0.255c0.338,0.483,0.226,1.148-0.248,1.483l-0.001,0.001
					C101.102,173.109,100.886,173.172,100.674,173.172z M100.667,171.397c-0.143,0-0.287,0.042-0.412,0.131
					c-0.153,0.108-0.254,0.272-0.286,0.46c-0.031,0.188,0.012,0.375,0.121,0.526c0.228,0.329,0.666,0.404,0.999,0.174
					c0.315-0.224,0.388-0.668,0.162-0.99C101.112,171.502,100.891,171.397,100.667,171.397z"/>
			</g>
			<g>
				<path style="fill:#A9ABAE;" d="M48.165,152.441c-0.405,0.289-0.953,0.192-1.238-0.21c-0.286-0.404-0.196-0.956,0.214-1.237
					c0.4-0.286,0.953-0.188,1.238,0.208C48.662,151.6,48.563,152.159,48.165,152.441z"/>
				<path style="fill:#57595B;" d="M47.651,152.784c-0.059,0-0.118-0.005-0.177-0.015c-0.28-0.047-0.525-0.202-0.691-0.437
					c-0.168-0.237-0.233-0.523-0.182-0.805c0.05-0.277,0.206-0.519,0.441-0.68c0.472-0.337,1.137-0.227,1.481,0.25
					c0.165,0.233,0.228,0.516,0.179,0.798c-0.049,0.281-0.203,0.525-0.434,0.689l0,0C48.084,152.715,47.87,152.784,47.651,152.784z
					 M47.653,151.006c-0.142,0-0.286,0.042-0.41,0.131c-0.159,0.109-0.263,0.269-0.295,0.453c-0.034,0.188,0.01,0.379,0.123,0.539
					c0.111,0.157,0.275,0.261,0.462,0.292c0.184,0.031,0.373-0.013,0.529-0.124l0.001-0.001c0.154-0.109,0.257-0.273,0.291-0.462
					c0.033-0.189-0.009-0.378-0.118-0.532C48.095,151.109,47.875,151.006,47.653,151.006z"/>
			</g>
			<g>
				<path style="fill:#A9ABAE;" d="M67.755,181.206c-0.411,0.276-0.959,0.18-1.244-0.215c-0.288-0.399-0.197-0.952,0.211-1.241
					c0.394-0.278,0.949-0.185,1.24,0.218C68.237,180.365,68.143,180.923,67.755,181.206z"/>
				<path style="fill:#57595B;" d="M67.241,181.541c-0.335,0-0.662-0.155-0.873-0.447c-0.167-0.231-0.233-0.513-0.187-0.792
					c0.047-0.282,0.203-0.529,0.439-0.696c0.474-0.335,1.141-0.219,1.485,0.259c0.332,0.479,0.22,1.144-0.246,1.484l-0.006,0.004
					C67.665,181.48,67.451,181.541,67.241,181.541z M67.228,179.767c-0.14,0-0.281,0.041-0.403,0.127
					c-0.159,0.112-0.263,0.277-0.295,0.465c-0.031,0.186,0.013,0.373,0.125,0.528c0.229,0.318,0.668,0.394,0.999,0.174
					c0.311-0.229,0.384-0.674,0.163-0.993C67.676,179.872,67.452,179.767,67.228,179.767z"/>
			</g>
		</g>
		<polygon style="fill:#9B9EA0;" points="53.772,182.338 39.025,161.514 47.632,155.419 62.387,176.249 		"/>
		<g>
			<path style="fill:#A9ABAE;" d="M56.16,177.103c-0.882,0.627-2.12,0.416-2.747-0.471l-8.728-12.331
				c-0.628-0.888-0.419-2.112,0.467-2.75l0,0c0.893-0.62,2.12-0.411,2.745,0.473l8.736,12.331
				C57.256,175.243,57.05,176.474,56.16,177.103L56.16,177.103z"/>
			<path style="fill:#57595B;" d="M55.03,177.641c-0.122,0-0.245-0.01-0.368-0.031c-0.568-0.097-1.063-0.408-1.394-0.876
				l-8.728-12.331c-0.68-0.961-0.452-2.305,0.508-2.996c0.973-0.676,2.315-0.445,2.993,0.514l8.736,12.331
				c0.68,0.97,0.448,2.313-0.515,2.995C55.898,177.506,55.471,177.641,55.03,177.641z M46.285,161.372
				c-0.357,0-0.718,0.105-1.033,0.323c-0.8,0.576-0.992,1.7-0.424,2.503l8.728,12.331c0.277,0.391,0.69,0.651,1.165,0.732
				c0.474,0.081,0.948-0.027,1.336-0.302l0,0c0.805-0.569,0.998-1.692,0.431-2.503l-8.736-12.33
				C47.406,161.635,46.85,161.372,46.285,161.372z"/>
		</g>
		<g>
			<path style="fill:#A9ABAE;" d="M56.723,176.289c-0.884,0.628-2.11,0.412-2.735-0.471l-8.736-12.334
				c-0.627-0.887-0.413-2.116,0.473-2.737l0,0c0.886-0.638,2.116-0.425,2.732,0.462l8.739,12.334
				C57.826,174.426,57.606,175.656,56.723,176.289L56.723,176.289z"/>
			<path style="fill:#57595B;" d="M55.598,176.827c-0.121,0-0.242-0.01-0.363-0.031c-0.566-0.096-1.06-0.407-1.391-0.876
				l-8.736-12.334c-0.331-0.468-0.459-1.037-0.361-1.601c0.098-0.564,0.41-1.055,0.877-1.382c0.465-0.335,1.034-0.467,1.601-0.37
				c0.563,0.097,1.052,0.408,1.377,0.876l8.739,12.333c0.683,0.956,0.452,2.299-0.514,2.992l-0.001,0
				C56.462,176.692,56.036,176.827,55.598,176.827z M46.861,160.555c-0.368,0-0.727,0.115-1.033,0.336
				c-0.392,0.274-0.652,0.684-0.734,1.155c-0.082,0.471,0.025,0.946,0.301,1.337l8.736,12.334c0.277,0.391,0.689,0.651,1.162,0.732
				c0.47,0.079,0.94-0.027,1.326-0.302c0.808-0.58,1.002-1.701,0.432-2.5l-8.74-12.335c-0.271-0.391-0.678-0.65-1.148-0.731
				C47.063,160.563,46.962,160.555,46.861,160.555z"/>
		</g>
		<g>
			<path style="fill:#999998;" d="M47.557,163.563c-0.374,0.258-0.889,0.175-1.144-0.198c-0.263-0.372-0.177-0.884,0.189-1.152
				c0.378-0.256,0.893-0.177,1.162,0.199C48.019,162.783,47.931,163.296,47.557,163.563z"/>
			<path style="fill:#999998;" d="M49.171,165.836c-0.372,0.269-0.884,0.178-1.148-0.195c-0.259-0.367-0.177-0.884,0.193-1.146
				c0.378-0.261,0.889-0.175,1.155,0.193C49.636,165.063,49.543,165.576,49.171,165.836z"/>
			<path style="fill:#999998;" d="M50.79,168.118c-0.375,0.268-0.888,0.18-1.16-0.192c-0.255-0.373-0.16-0.888,0.202-1.146
				c0.373-0.267,0.895-0.179,1.154,0.193C51.244,167.344,51.166,167.855,50.79,168.118z"/>
			<path style="fill:#999998;" d="M52.404,170.4c-0.382,0.258-0.888,0.177-1.159-0.19c-0.253-0.374-0.175-0.892,0.2-1.148
				c0.378-0.273,0.892-0.183,1.154,0.188C52.86,169.622,52.771,170.141,52.404,170.4z"/>
			<path style="fill:#999998;" d="M54.013,172.684c-0.365,0.261-0.887,0.17-1.148-0.2c-0.262-0.371-0.176-0.882,0.199-1.151
				c0.367-0.259,0.883-0.174,1.147,0.199C54.474,171.901,54.389,172.412,54.013,172.684z"/>
			<path style="fill:#999998;" d="M55.624,174.962c-0.373,0.264-0.882,0.176-1.142-0.199c-0.267-0.369-0.184-0.885,0.19-1.147
				c0.377-0.27,0.892-0.174,1.157,0.188C56.09,174.185,56.002,174.695,55.624,174.962z"/>
		</g>
		<g>
			<path style="fill:#999998;" d="M76.406,143.416c-0.364,0.263-0.878,0.17-1.138-0.199c-0.264-0.381-0.175-0.889,0.197-1.158
				c0.366-0.256,0.886-0.17,1.144,0.203C76.873,142.635,76.788,143.145,76.406,143.416z"/>
			<path style="fill:#999998;" d="M78.031,145.693c-0.378,0.265-0.888,0.177-1.153-0.198c-0.272-0.378-0.173-0.887,0.188-1.145
				c0.384-0.268,0.889-0.175,1.155,0.193C78.489,144.913,78.408,145.427,78.031,145.693z"/>
			<path style="fill:#999998;" d="M79.64,147.976c-0.367,0.263-0.885,0.172-1.149-0.201c-0.265-0.374-0.173-0.887,0.191-1.153
				c0.374-0.265,0.9-0.171,1.163,0.193C80.096,147.194,80.015,147.708,79.64,147.976z"/>
			<path style="fill:#999998;" d="M81.257,150.251c-0.372,0.269-0.89,0.178-1.156-0.198c-0.262-0.371-0.169-0.881,0.201-1.152
				c0.373-0.258,0.884-0.165,1.146,0.205C81.719,149.473,81.626,149.987,81.257,150.251z"/>
			<path style="fill:#999998;" d="M82.877,152.535c-0.387,0.256-0.89,0.173-1.163-0.201c-0.261-0.369-0.172-0.885,0.202-1.15
				c0.367-0.262,0.889-0.175,1.148,0.201C83.328,151.756,83.241,152.271,82.877,152.535z"/>
			<path style="fill:#999998;" d="M84.48,154.81c-0.371,0.262-0.879,0.18-1.143-0.193c-0.266-0.376-0.179-0.891,0.194-1.149
				c0.378-0.273,0.89-0.182,1.151,0.196C84.943,154.032,84.851,154.548,84.48,154.81z"/>
		</g>
		<g>
			<path style="fill:#999998;" d="M93.422,131.837c-0.371,0.262-0.886,0.179-1.152-0.198c-0.265-0.365-0.174-0.883,0.2-1.148
				c0.368-0.257,0.886-0.171,1.154,0.196C93.881,131.062,93.798,131.574,93.422,131.837z"/>
			<path style="fill:#999998;" d="M95.032,134.122c-0.374,0.258-0.877,0.167-1.14-0.201c-0.268-0.367-0.184-0.885,0.193-1.151
				c0.372-0.263,0.889-0.175,1.153,0.2C95.494,133.342,95.41,133.858,95.032,134.122z"/>
			<path style="fill:#999998;" d="M96.652,136.401c-0.377,0.266-0.883,0.171-1.149-0.201c-0.259-0.367-0.175-0.885,0.192-1.148
				c0.373-0.267,0.886-0.176,1.149,0.197C97.107,135.62,97.023,136.135,96.652,136.401z"/>
			<path style="fill:#999998;" d="M98.266,138.683c-0.373,0.259-0.888,0.169-1.15-0.202c-0.269-0.368-0.177-0.887,0.195-1.147
				c0.37-0.267,0.891-0.171,1.147,0.198C98.724,137.9,98.637,138.409,98.266,138.683z"/>
			<path style="fill:#999998;" d="M99.879,140.963c-0.375,0.257-0.886,0.171-1.148-0.2c-0.264-0.378-0.18-0.888,0.197-1.154
				c0.372-0.263,0.88-0.166,1.147,0.199C100.337,140.18,100.259,140.694,99.879,140.963z"/>
			<path style="fill:#999998;" d="M101.489,143.24c-0.367,0.268-0.887,0.17-1.149-0.201c-0.26-0.372-0.174-0.883,0.199-1.142
				c0.38-0.274,0.89-0.182,1.151,0.187C101.96,142.459,101.865,142.974,101.489,143.24z"/>
		</g>
		<g>
			<path style="fill:#999998;" d="M60.424,154.951c-0.433,0.116-0.886-0.152-0.997-0.591c-0.112-0.436,0.153-0.902,0.591-1.006
				c0.439-0.12,0.895,0.149,1.006,0.588C61.126,154.392,60.872,154.835,60.424,154.951z"/>
			<path style="fill:#999998;" d="M61.117,157.653c-0.444,0.112-0.891-0.142-1.001-0.592c-0.105-0.438,0.158-0.89,0.594-1.002
				c0.444-0.112,0.894,0.147,1.007,0.596C61.835,157.099,61.561,157.544,61.117,157.653z"/>
			<path style="fill:#999998;" d="M61.814,160.364c-0.443,0.111-0.892-0.147-1.008-0.598c-0.113-0.441,0.156-0.889,0.602-0.999
				c0.443-0.114,0.886,0.152,1,0.595C62.521,159.8,62.251,160.249,61.814,160.364z"/>
			<path style="fill:#999998;" d="M62.504,163.069c-0.439,0.112-0.891-0.151-1.003-0.59c-0.114-0.443,0.155-0.897,0.595-1.009
				c0.444-0.112,0.892,0.154,1.011,0.594C63.215,162.511,62.944,162.959,62.504,163.069z"/>
			<path style="fill:#999998;" d="M63.199,165.773c-0.443,0.119-0.895-0.149-1.007-0.596c-0.113-0.438,0.156-0.889,0.596-1.004
				c0.447-0.108,0.885,0.159,0.999,0.602C63.904,165.219,63.644,165.663,63.199,165.773z"/>
			<path style="fill:#999998;" d="M63.892,168.484c-0.448,0.115-0.896-0.154-1.006-0.6c-0.113-0.441,0.158-0.89,0.597-0.996
				c0.441-0.122,0.887,0.145,1.005,0.589C64.594,167.921,64.336,168.367,63.892,168.484z"/>
		</g>
		<path style="fill:#130F10;" d="M65.21,198.819c-1.083,0.236-2.432-1.683-3.029-4.305c-0.581-2.617-0.187-4.933,0.889-5.173
			c1.089-0.243,2.434,1.679,3.021,4.293C66.679,196.25,66.29,198.576,65.21,198.819z"/>
		<g>
			<path style="fill:#A9ABAE;" d="M64.763,192.439c-0.554,0.392-1.438,0.098-1.98-0.669c-0.533-0.762-0.527-1.702,0.021-2.09
				c0.564-0.393,1.438-0.089,1.986,0.673C65.322,191.119,65.316,192.046,64.763,192.439z"/>
			<path style="fill:#57595B;" d="M64.196,192.79c-0.155,0-0.318-0.028-0.483-0.083c-0.409-0.137-0.79-0.434-1.073-0.834
				c-0.591-0.846-0.563-1.893,0.063-2.336c0.643-0.448,1.622-0.133,2.232,0.714c0.596,0.858,0.566,1.881-0.068,2.332l-0.001,0
				C64.672,192.721,64.442,192.79,64.196,192.79z M63.377,189.684c-0.172,0-0.334,0.046-0.472,0.142
				c-0.459,0.324-0.448,1.169,0.023,1.843c0.24,0.339,0.559,0.589,0.897,0.702c0.318,0.107,0.615,0.08,0.836-0.077
				c0.466-0.332,0.459-1.157-0.016-1.84C64.293,189.966,63.803,189.684,63.377,189.684z"/>
		</g>
		<g>
			<polygon style="fill:#925E4C;" points="97.795,125.714 107.968,140.08 254.088,35.61 246.555,24.968 			"/>
			<path style="fill:#553427;" d="M107.927,140.327l-10.381-14.659l0.149-0.101L246.599,24.725l7.735,10.926l-0.143,0.102
				L107.927,140.327z M98.043,125.759l9.967,14.075L253.842,35.569l-7.332-10.357L98.043,125.759z"/>
		</g>
		<g style="opacity:0.5;">
			
				<linearGradient id="SVGID_00000000198294405598233570000010262558300451023295_" gradientUnits="userSpaceOnUse" x1="-1559.325" y1="-403.1854" x2="-1559.325" y2="-221.3391" gradientTransform="matrix(0.5778 0.8162 -0.8162 0.5778 821.361 1536.5159)">
				<stop  offset="0.211" style="stop-color:#402E2C"/>
				<stop  offset="0.2562" style="stop-color:#4B3733"/>
				<stop  offset="0.3942" style="stop-color:#674F44"/>
				<stop  offset="0.5144" style="stop-color:#795D4E"/>
				<stop  offset="0.6027" style="stop-color:#7F6252"/>
				<stop  offset="0.7044" style="stop-color:#6B5246"/>
				<stop  offset="0.8944" style="stop-color:#4C3833"/>
				<stop  offset="1" style="stop-color:#402E2C"/>
			</linearGradient>
			<polygon style="fill:url(#SVGID_00000000198294405598233570000010262558300451023295_);" points="248.962,39.274 254.088,35.61 
				246.555,24.968 241.342,28.498 			"/>
		</g>
		<g>
			<path style="fill:#EE2138;" d="M258.917,35.307c0.705-0.191,1.442-0.269,2.249-0.188c1.146,0.115,2.273,0.411,3.425,0.445
				c2.337,0.068,4.204-1.015,5.959-2.441c1.504-1.222,2.938-2.526,4.412-3.783c1.998-1.703,4.223-3.585,6.666-4.603
				c1.457-0.607,3.136-0.835,4.617-0.286c1.397,0.517,2.469,1.682,3.941,2.009c1.546,0.344,3.235-0.143,4.532-1.001
				c4.208-2.783,5.525-8.524,1.899-12.319c-3.596-3.763-10.214-3.237-14.887-2.799c-11.594,1.075-29.645,6.46-34.13,8.183
				c-4.484,1.725-3.217,3.521-3.217,3.521s10.266,14.501,10.271,14.508c0.583,0.823,1.138,0.237,1.835-0.168
				C257.293,35.918,258.082,35.533,258.917,35.307z"/>
			<path style="fill:#690404;" d="M255.288,37.146c-0.26,0-0.522-0.128-0.779-0.491c-0.039-0.055-10.271-14.509-10.271-14.509
				c-0.014-0.02-0.337-0.489-0.127-1.18c0.294-0.97,1.447-1.847,3.425-2.608c4.156-1.596,22.335-7.095,34.177-8.194
				c4.224-0.395,11.294-1.058,15.031,2.854c1.617,1.693,2.366,3.886,2.109,6.176c-0.284,2.531-1.794,4.927-4.039,6.412
				c-1.462,0.967-3.207,1.351-4.668,1.026c-0.856-0.191-1.583-0.654-2.285-1.103c-0.533-0.34-1.084-0.692-1.679-0.913
				c-1.299-0.481-2.892-0.38-4.487,0.284c-2.452,1.021-4.666,2.908-6.62,4.574c-0.54,0.46-1.075,0.927-1.609,1.394
				c-0.91,0.794-1.851,1.616-2.805,2.391c-1.561,1.268-3.499,2.553-6.076,2.48c-0.694-0.02-1.384-0.135-2.052-0.246
				c-0.454-0.075-0.923-0.153-1.385-0.2c-0.741-0.075-1.456-0.015-2.184,0.182l0,0c-0.726,0.197-1.462,0.524-2.386,1.061
				c-0.109,0.064-0.215,0.132-0.318,0.198C255.953,36.934,255.622,37.146,255.288,37.146z M286.865,10.213
				c-1.874,0-3.667,0.168-5.12,0.304c-11.808,1.095-29.939,6.58-34.083,8.172c-2.32,0.892-3.026,1.781-3.21,2.37
				c-0.164,0.526,0.065,0.871,0.075,0.885c4.683,6.615,10.267,14.503,10.272,14.51c0.374,0.528,0.66,0.378,1.269-0.015
				c0.107-0.069,0.217-0.14,0.331-0.206c0.952-0.553,1.714-0.892,2.471-1.097l0,0c0.771-0.209,1.527-0.272,2.312-0.193
				c0.473,0.048,0.948,0.127,1.408,0.203c0.656,0.109,1.335,0.222,2.004,0.241c2.453,0.077,4.332-1.173,5.842-2.401
				c0.95-0.772,1.888-1.591,2.796-2.383c0.536-0.468,1.071-0.936,1.613-1.397c1.973-1.682,4.21-3.589,6.713-4.631
				c1.678-0.699,3.363-0.802,4.746-0.289c0.631,0.234,1.198,0.596,1.747,0.946c0.708,0.452,1.376,0.879,2.171,1.056
				c1.369,0.305,3.012-0.061,4.396-0.976c2.158-1.428,3.61-3.729,3.882-6.157c0.245-2.184-0.47-4.277-2.013-5.892
				C294.133,10.798,290.359,10.213,286.865,10.213z"/>
		</g>
		<g style="opacity:0.5;">
			
				<linearGradient id="SVGID_00000108270091250322557590000004984041678049886856_" gradientUnits="userSpaceOnUse" x1="-1555.1338" y1="-439.6074" x2="-1552.3027" y2="-434.9918" gradientTransform="matrix(0.5778 0.8162 -0.8162 0.5778 821.361 1536.5159)">
				<stop  offset="0" style="stop-color:#DF193A"/>
				<stop  offset="0.0746" style="stop-color:#BD132B"/>
				<stop  offset="0.1635" style="stop-color:#9B0C1C"/>
				<stop  offset="0.2548" style="stop-color:#810710"/>
				<stop  offset="0.3479" style="stop-color:#6E0408"/>
				<stop  offset="0.444" style="stop-color:#630203"/>
				<stop  offset="0.5478" style="stop-color:#5F0101"/>
				<stop  offset="0.6522" style="stop-color:#540102"/>
				<stop  offset="0.8192" style="stop-color:#490004"/>
				<stop  offset="1" style="stop-color:#450004"/>
			</linearGradient>
			<path style="fill:url(#SVGID_00000108270091250322557590000004984041678049886856_);" d="M281.652,17.317
				c-0.875,0.625-2.085,0.412-2.703-0.462c-0.619-0.876-0.413-2.087,0.464-2.704c0.866-0.613,2.079-0.408,2.7,0.458
				C282.733,15.49,282.527,16.701,281.652,17.317z"/>
			
				<linearGradient id="SVGID_00000069386121649750844040000010800636238888588448_" gradientUnits="userSpaceOnUse" x1="-1557.2281" y1="-434.5331" x2="-1554.3954" y2="-429.9147" gradientTransform="matrix(0.5778 0.8162 -0.8162 0.5778 821.361 1536.5159)">
				<stop  offset="0" style="stop-color:#DF193A"/>
				<stop  offset="0.0746" style="stop-color:#BD132B"/>
				<stop  offset="0.1635" style="stop-color:#9B0C1C"/>
				<stop  offset="0.2548" style="stop-color:#810710"/>
				<stop  offset="0.3479" style="stop-color:#6E0408"/>
				<stop  offset="0.444" style="stop-color:#630203"/>
				<stop  offset="0.5478" style="stop-color:#5F0101"/>
				<stop  offset="0.6522" style="stop-color:#540102"/>
				<stop  offset="0.8192" style="stop-color:#490004"/>
				<stop  offset="1" style="stop-color:#450004"/>
			</linearGradient>
			<path style="fill:url(#SVGID_00000069386121649750844040000010800636238888588448_);" d="M276.297,18.545
				c-0.87,0.615-2.084,0.409-2.701-0.463c-0.621-0.874-0.413-2.083,0.466-2.705c0.869-0.621,2.077-0.41,2.7,0.458
				C277.372,16.711,277.176,17.927,276.297,18.545z"/>
			
				<linearGradient id="SVGID_00000109751430933667856830000003862101622906530692_" gradientUnits="userSpaceOnUse" x1="-1559.6418" y1="-429.5147" x2="-1556.8104" y2="-424.8983" gradientTransform="matrix(0.5778 0.8162 -0.8162 0.5778 821.361 1536.5159)">
				<stop  offset="0" style="stop-color:#DF193A"/>
				<stop  offset="0.0746" style="stop-color:#BD132B"/>
				<stop  offset="0.1635" style="stop-color:#9B0C1C"/>
				<stop  offset="0.2548" style="stop-color:#810710"/>
				<stop  offset="0.3479" style="stop-color:#6E0408"/>
				<stop  offset="0.444" style="stop-color:#630203"/>
				<stop  offset="0.5478" style="stop-color:#5F0101"/>
				<stop  offset="0.6522" style="stop-color:#540102"/>
				<stop  offset="0.8192" style="stop-color:#490004"/>
				<stop  offset="1" style="stop-color:#450004"/>
			</linearGradient>
			<path style="fill:url(#SVGID_00000109751430933667856830000003862101622906530692_);" d="M270.805,19.474
				c-0.87,0.615-2.076,0.408-2.698-0.46c-0.617-0.877-0.409-2.089,0.458-2.708c0.883-0.618,2.088-0.412,2.704,0.464
				C271.886,17.646,271.681,18.854,270.805,19.474z"/>
			
				<linearGradient id="SVGID_00000010288795274464029740000012627150029946971784_" gradientUnits="userSpaceOnUse" x1="-1561.7996" y1="-424.4383" x2="-1558.968" y2="-419.8218" gradientTransform="matrix(0.5778 0.8162 -0.8162 0.5778 821.361 1536.5159)">
				<stop  offset="0" style="stop-color:#DF193A"/>
				<stop  offset="0.0746" style="stop-color:#BD132B"/>
				<stop  offset="0.1635" style="stop-color:#9B0C1C"/>
				<stop  offset="0.2548" style="stop-color:#810710"/>
				<stop  offset="0.3479" style="stop-color:#6E0408"/>
				<stop  offset="0.444" style="stop-color:#630203"/>
				<stop  offset="0.5478" style="stop-color:#5F0101"/>
				<stop  offset="0.6522" style="stop-color:#540102"/>
				<stop  offset="0.8192" style="stop-color:#490004"/>
				<stop  offset="1" style="stop-color:#450004"/>
			</linearGradient>
			<path style="fill:url(#SVGID_00000010288795274464029740000012627150029946971784_);" d="M265.415,20.645
				c-0.87,0.618-2.081,0.409-2.695-0.464c-0.625-0.875-0.421-2.081,0.462-2.703c0.87-0.62,2.069-0.415,2.702,0.46
				C266.502,18.814,266.294,20.026,265.415,20.645z"/>
			
				<linearGradient id="SVGID_00000044897801795752019410000000070860892462235782_" gradientUnits="userSpaceOnUse" x1="-1563.7687" y1="-418.0268" x2="-1560.9349" y2="-413.4068" gradientTransform="matrix(0.5778 0.8162 -0.8162 0.5778 821.361 1536.5159)">
				<stop  offset="0" style="stop-color:#DF193A"/>
				<stop  offset="0.0746" style="stop-color:#BD132B"/>
				<stop  offset="0.1635" style="stop-color:#9B0C1C"/>
				<stop  offset="0.2548" style="stop-color:#810710"/>
				<stop  offset="0.3479" style="stop-color:#6E0408"/>
				<stop  offset="0.444" style="stop-color:#630203"/>
				<stop  offset="0.5478" style="stop-color:#5F0101"/>
				<stop  offset="0.6522" style="stop-color:#540102"/>
				<stop  offset="0.8192" style="stop-color:#490004"/>
				<stop  offset="1" style="stop-color:#450004"/>
			</linearGradient>
			<path style="fill:url(#SVGID_00000044897801795752019410000000070860892462235782_);" d="M259.053,22.742
				c-0.885,0.62-2.094,0.412-2.71-0.46c-0.62-0.876-0.41-2.086,0.463-2.706c0.872-0.617,2.09-0.413,2.704,0.464
				C260.129,20.915,259.918,22.127,259.053,22.742z"/>
			
				<linearGradient id="SVGID_00000155865730710042589940000008185550190837512120_" gradientUnits="userSpaceOnUse" x1="-1566.6885" y1="-412.2458" x2="-1563.8585" y2="-407.632" gradientTransform="matrix(0.5778 0.8162 -0.8162 0.5778 821.361 1536.5159)">
				<stop  offset="0" style="stop-color:#DF193A"/>
				<stop  offset="0.0746" style="stop-color:#BD132B"/>
				<stop  offset="0.1635" style="stop-color:#9B0C1C"/>
				<stop  offset="0.2548" style="stop-color:#810710"/>
				<stop  offset="0.3479" style="stop-color:#6E0408"/>
				<stop  offset="0.444" style="stop-color:#630203"/>
				<stop  offset="0.5478" style="stop-color:#5F0101"/>
				<stop  offset="0.6522" style="stop-color:#540102"/>
				<stop  offset="0.8192" style="stop-color:#490004"/>
				<stop  offset="1" style="stop-color:#450004"/>
			</linearGradient>
			<path style="fill:url(#SVGID_00000155865730710042589940000008185550190837512120_);" d="M252.642,23.695
				c-0.874,0.618-2.085,0.412-2.697-0.463c-0.622-0.875-0.423-2.08,0.456-2.699c0.879-0.619,2.082-0.416,2.701,0.46
				C253.724,21.868,253.519,23.081,252.642,23.695z"/>
		</g>
		<g>
			<g>
				<path style="fill:#A9ABAE;" d="M281.818,16.894c-0.879,0.615-2.085,0.412-2.707-0.465c-0.613-0.874-0.413-2.09,0.46-2.701
					c0.885-0.623,2.09-0.413,2.704,0.46C282.896,15.062,282.69,16.269,281.818,16.894z"/>
				<path style="fill:#57595B;" d="M280.702,17.423c-0.666,0-1.322-0.311-1.734-0.891c-0.325-0.463-0.451-1.024-0.357-1.581
					c0.094-0.559,0.4-1.045,0.86-1.367c0.465-0.328,1.029-0.456,1.585-0.36c0.556,0.095,1.041,0.402,1.365,0.864
					c0.673,0.947,0.449,2.271-0.499,2.951l-0.002,0.001C281.549,17.298,281.124,17.423,280.702,17.423z M280.695,13.546
					c-0.362,0-0.717,0.112-1.022,0.327c-0.383,0.268-0.637,0.672-0.715,1.137c-0.078,0.465,0.027,0.933,0.297,1.318
					c0.56,0.79,1.664,0.979,2.46,0.422c0.789-0.567,0.976-1.67,0.415-2.459c-0.271-0.385-0.674-0.64-1.136-0.72
					C280.895,13.555,280.795,13.546,280.695,13.546z"/>
			</g>
			<g>
				<path style="fill:#A9ABAE;" d="M281.315,16.183c-0.487,0.353-1.151,0.234-1.498-0.252c-0.345-0.487-0.23-1.157,0.26-1.498
					c0.484-0.342,1.153-0.233,1.494,0.254C281.913,15.174,281.8,15.842,281.315,16.183z"/>
				<path style="fill:#57595B;" d="M280.693,16.563c-0.066,0-0.133-0.005-0.199-0.016c-0.331-0.054-0.622-0.237-0.82-0.514
					c-0.195-0.276-0.27-0.61-0.213-0.94c0.058-0.328,0.241-0.615,0.516-0.806c0.274-0.194,0.607-0.269,0.937-0.212
					c0.327,0.057,0.612,0.238,0.802,0.51c0.397,0.566,0.262,1.347-0.299,1.741C281.203,16.482,280.951,16.563,280.693,16.563z
					 M280.699,14.41c-0.185,0-0.365,0.057-0.519,0.166c-0.198,0.138-0.329,0.343-0.371,0.578c-0.042,0.237,0.013,0.476,0.153,0.674
					c0.142,0.2,0.352,0.331,0.589,0.37c0.233,0.038,0.467-0.018,0.661-0.159l0.002-0.002c0.403-0.282,0.498-0.843,0.213-1.25
					c-0.136-0.194-0.34-0.323-0.574-0.364C280.802,14.415,280.75,14.41,280.699,14.41z"/>
			</g>
		</g>
		<g>
			<g>
				<path style="fill:#A9ABAE;" d="M276.458,18.112c-0.873,0.623-2.075,0.417-2.707-0.459c-0.613-0.872-0.405-2.084,0.465-2.702
					c0.874-0.618,2.087-0.41,2.707,0.465C277.538,16.287,277.332,17.494,276.458,18.112z"/>
				<path style="fill:#57595B;" d="M275.344,18.645c-0.662,0-1.318-0.31-1.736-0.889c-0.67-0.953-0.443-2.275,0.507-2.95
					c0.952-0.673,2.277-0.446,2.954,0.507c0.67,0.951,0.442,2.271-0.508,2.943C276.193,18.519,275.767,18.645,275.344,18.645z
					 M275.334,14.772c-0.352,0-0.707,0.105-1.015,0.323c-0.791,0.562-0.981,1.664-0.423,2.456c0.57,0.791,1.673,0.979,2.459,0.417
					l0.001,0c0.791-0.56,0.981-1.659,0.424-2.451C276.435,15.032,275.889,14.772,275.334,14.772z"/>
			</g>
			<g>
				<path style="fill:#A9ABAE;" d="M275.958,17.413c-0.484,0.342-1.149,0.221-1.497-0.258c-0.344-0.491-0.233-1.161,0.256-1.501
					c0.491-0.347,1.159-0.231,1.5,0.259C276.563,16.394,276.444,17.069,275.958,17.413z"/>
				<path style="fill:#57595B;" d="M275.347,17.782c-0.392,0-0.781-0.183-1.029-0.524c-0.197-0.282-0.273-0.618-0.214-0.951
					c0.058-0.326,0.24-0.61,0.512-0.799c0.276-0.195,0.61-0.271,0.941-0.213c0.328,0.058,0.614,0.241,0.805,0.517
					c0.192,0.266,0.268,0.596,0.213,0.925c-0.056,0.334-0.239,0.625-0.515,0.82l0,0C275.845,17.709,275.595,17.782,275.347,17.782z
					 M275.341,15.63c-0.185,0-0.366,0.058-0.522,0.168c-0.195,0.136-0.325,0.339-0.367,0.571c-0.042,0.239,0.012,0.482,0.154,0.683
					c0.29,0.399,0.851,0.497,1.25,0.215l0,0c0.199-0.14,0.33-0.35,0.37-0.59c0.039-0.236-0.015-0.471-0.153-0.663
					c-0.139-0.2-0.344-0.331-0.578-0.373C275.444,15.634,275.393,15.63,275.341,15.63z"/>
			</g>
		</g>
		<g>
			<g>
				<path style="fill:#A9ABAE;" d="M270.976,19.048c-0.878,0.621-2.088,0.411-2.705-0.47c-0.616-0.872-0.41-2.077,0.463-2.697
					c0.874-0.621,2.084-0.417,2.7,0.458C272.055,17.218,271.847,18.427,270.976,19.048z"/>
				<path style="fill:#57595B;" d="M269.859,19.583c-0.121,0-0.244-0.01-0.366-0.032c-0.557-0.097-1.043-0.406-1.368-0.871
					c-0.67-0.948-0.444-2.268,0.505-2.943c0.463-0.329,1.024-0.458,1.582-0.362c0.555,0.095,1.04,0.401,1.364,0.862
					c0.673,0.952,0.449,2.278-0.5,2.955l-0.001,0C270.715,19.449,270.293,19.583,269.859,19.583z M269.854,15.699
					c-0.362,0-0.716,0.112-1.018,0.327c-0.791,0.562-0.979,1.661-0.421,2.451c0.271,0.388,0.676,0.645,1.139,0.726
					c0.464,0.081,0.933-0.025,1.319-0.298c0.79-0.564,0.977-1.669,0.416-2.463c-0.27-0.384-0.673-0.638-1.135-0.717
					C270.054,15.707,269.953,15.699,269.854,15.699z"/>
			</g>
			<g>
				<path style="fill:#A9ABAE;" d="M270.478,18.341c-0.491,0.344-1.156,0.227-1.505-0.255c-0.343-0.489-0.221-1.157,0.258-1.502
					c0.491-0.344,1.162-0.231,1.499,0.254C271.078,17.323,270.96,18,270.478,18.341z"/>
				<path style="fill:#57595B;" d="M269.852,18.717c-0.39,0-0.773-0.183-1.023-0.528c-0.396-0.563-0.262-1.347,0.297-1.749
					c0.281-0.197,0.618-0.273,0.951-0.213c0.326,0.058,0.609,0.239,0.797,0.509c0.194,0.269,0.271,0.602,0.215,0.934
					c-0.056,0.332-0.237,0.622-0.51,0.815l-0.001,0C270.356,18.642,270.103,18.717,269.852,18.717z M269.856,16.561
					c-0.186,0-0.367,0.057-0.524,0.167c-0.401,0.288-0.498,0.852-0.215,1.256c0.294,0.406,0.848,0.5,1.259,0.212
					c0.195-0.138,0.325-0.346,0.365-0.584c0.04-0.238-0.015-0.476-0.155-0.671c-0.135-0.195-0.337-0.324-0.57-0.365
					C269.962,16.566,269.909,16.561,269.856,16.561z"/>
			</g>
		</g>
		<g>
			<g>
				<path style="fill:#A9ABAE;" d="M265.579,20.219c-0.874,0.618-2.081,0.406-2.71-0.469c-0.606-0.865-0.404-2.082,0.472-2.698
					c0.875-0.616,2.078-0.41,2.695,0.459C266.663,18.387,266.452,19.599,265.579,20.219z"/>
				<path style="fill:#57595B;" d="M264.471,20.747c-0.666,0-1.326-0.311-1.745-0.893c-0.669-0.956-0.438-2.276,0.513-2.946
					c0.95-0.668,2.269-0.444,2.941,0.501c0.329,0.458,0.459,1.018,0.366,1.575c-0.094,0.56-0.4,1.05-0.864,1.379l0,0
					C265.315,20.622,264.892,20.747,264.471,20.747z M264.455,16.877c-0.351,0-0.705,0.104-1.013,0.32
					c-0.792,0.558-0.985,1.658-0.428,2.452c0.57,0.791,1.675,0.983,2.464,0.426c0.386-0.274,0.641-0.683,0.719-1.149
					c0.077-0.463-0.031-0.929-0.305-1.311C265.549,17.133,265.006,16.877,264.455,16.877z"/>
			</g>
			<g>
				<path style="fill:#A9ABAE;" d="M265.088,19.513c-0.493,0.345-1.162,0.228-1.499-0.257c-0.348-0.48-0.236-1.158,0.249-1.499
					c0.488-0.345,1.162-0.231,1.506,0.255C265.682,18.499,265.569,19.17,265.088,19.513z"/>
				<path style="fill:#57595B;" d="M264.466,19.888c-0.074,0-0.148-0.007-0.221-0.02c-0.327-0.058-0.611-0.24-0.8-0.512
					c-0.195-0.269-0.272-0.601-0.217-0.934c0.055-0.331,0.236-0.619,0.509-0.81c0.566-0.4,1.352-0.267,1.752,0.298
					c0.394,0.566,0.26,1.349-0.298,1.747l-0.001,0.001C264.973,19.809,264.722,19.888,264.466,19.888z M264.464,17.735
					c-0.181,0-0.364,0.054-0.524,0.167c-0.195,0.137-0.324,0.343-0.364,0.58c-0.04,0.238,0.016,0.476,0.156,0.671
					c0.137,0.197,0.34,0.327,0.573,0.369c0.238,0.043,0.479-0.012,0.68-0.152c0.4-0.286,0.496-0.849,0.213-1.256
					C265.025,17.866,264.747,17.735,264.464,17.735z"/>
			</g>
		</g>
		<g>
			<g>
				<path style="fill:#A9ABAE;" d="M259.211,22.316c-0.877,0.614-2.088,0.408-2.702-0.469c-0.624-0.866-0.418-2.08,0.462-2.694
					c0.874-0.618,2.081-0.418,2.698,0.459C260.291,20.488,260.082,21.698,259.211,22.316z"/>
				<path style="fill:#57595B;" d="M258.096,22.847c-0.121,0-0.243-0.01-0.365-0.031c-0.558-0.096-1.043-0.404-1.367-0.866
					c-0.328-0.456-0.457-1.014-0.362-1.572c0.095-0.559,0.403-1.045,0.868-1.369c0.463-0.327,1.026-0.455,1.584-0.359
					c0.553,0.096,1.036,0.402,1.36,0.862c0.675,0.95,0.451,2.273-0.501,2.949l-0.001,0.001
					C258.951,22.714,258.529,22.847,258.096,22.847z M258.091,18.972c-0.362,0-0.715,0.112-1.018,0.326
					c-0.387,0.27-0.644,0.675-0.723,1.139c-0.079,0.463,0.029,0.927,0.302,1.308c0.271,0.387,0.675,0.642,1.139,0.722
					c0.464,0.08,0.932-0.025,1.317-0.295c0.792-0.563,0.979-1.665,0.416-2.457c-0.27-0.383-0.671-0.638-1.131-0.717
					C258.293,18.98,258.192,18.972,258.091,18.972z"/>
			</g>
			<g>
				<path style="fill:#A9ABAE;" d="M258.709,21.606c-0.483,0.347-1.156,0.235-1.497-0.255c-0.348-0.48-0.226-1.148,0.259-1.497
					c0.478-0.347,1.156-0.227,1.507,0.257C259.311,20.595,259.203,21.266,258.709,21.606z"/>
				<path style="fill:#57595B;" d="M258.088,21.985c-0.071,0-0.142-0.006-0.213-0.018c-0.33-0.057-0.617-0.24-0.808-0.515
					c-0.19-0.262-0.267-0.586-0.215-0.911c0.054-0.335,0.237-0.629,0.515-0.83c0.555-0.403,1.342-0.271,1.754,0.296
					c0.394,0.573,0.254,1.353-0.31,1.743C258.596,21.905,258.345,21.985,258.088,21.985z M258.089,19.831
					c-0.18,0-0.36,0.054-0.515,0.166c-0.202,0.145-0.335,0.358-0.373,0.6c-0.037,0.231,0.017,0.462,0.154,0.65
					c0.139,0.2,0.344,0.331,0.58,0.371c0.236,0.041,0.475-0.014,0.671-0.155l0.003-0.002c0.405-0.279,0.505-0.84,0.223-1.249
					C258.652,19.964,258.371,19.831,258.089,19.831z"/>
			</g>
		</g>
		<g>
			<g>
				<path style="fill:#A9ABAE;" d="M252.8,23.265c-0.87,0.62-2.08,0.414-2.699-0.453c-0.616-0.875-0.409-2.089,0.458-2.708
					c0.885-0.619,2.09-0.413,2.711,0.465C253.887,21.44,253.675,22.652,252.8,23.265z"/>
				<path style="fill:#57595B;" d="M251.681,23.8c-0.66,0-1.312-0.308-1.724-0.885c-0.671-0.954-0.447-2.279,0.499-2.955
					c0.959-0.672,2.285-0.444,2.958,0.507c0.325,0.46,0.451,1.02,0.355,1.577c-0.097,0.557-0.404,1.042-0.866,1.366
					C252.532,23.673,252.105,23.8,251.681,23.8z M251.68,19.927c-0.353,0-0.709,0.104-1.019,0.322
					c-0.788,0.562-0.974,1.667-0.415,2.462c0.563,0.789,1.663,0.974,2.453,0.411l0.001-0.001c0.385-0.269,0.641-0.674,0.721-1.138
					c0.08-0.464-0.024-0.93-0.295-1.312C252.783,20.185,252.236,19.927,251.68,19.927z"/>
			</g>
			<g>
				<path style="fill:#A9ABAE;" d="M252.31,22.567c-0.483,0.347-1.158,0.225-1.501-0.256c-0.347-0.486-0.227-1.162,0.258-1.505
					c0.486-0.343,1.159-0.231,1.499,0.262C252.908,21.555,252.8,22.226,252.31,22.567z"/>
				<path style="fill:#57595B;" d="M251.694,22.942c-0.069,0-0.138-0.006-0.208-0.017c-0.334-0.055-0.625-0.237-0.821-0.512
					c-0.194-0.272-0.27-0.604-0.214-0.934c0.056-0.333,0.239-0.623,0.514-0.818c0.276-0.195,0.61-0.271,0.943-0.211
					c0.329,0.058,0.614,0.242,0.804,0.518c0.194,0.277,0.269,0.613,0.21,0.945c-0.058,0.326-0.239,0.609-0.511,0.799
					C252.2,22.863,251.951,22.942,251.694,22.942z M251.688,20.784c-0.184,0-0.364,0.057-0.518,0.166
					c-0.198,0.14-0.329,0.349-0.37,0.588c-0.04,0.237,0.014,0.475,0.153,0.67c0.141,0.198,0.351,0.328,0.591,0.368
					c0.236,0.039,0.471-0.015,0.663-0.153l0.002-0.001c0.194-0.135,0.324-0.338,0.366-0.571c0.042-0.239-0.012-0.48-0.152-0.681
					c-0.137-0.198-0.341-0.33-0.576-0.372C251.793,20.789,251.74,20.784,251.688,20.784z"/>
			</g>
		</g>
		
			<linearGradient id="SVGID_00000144327334393463816250000010618116815993920433_" gradientUnits="userSpaceOnUse" x1="-1560.6243" y1="-434.6667" x2="-1547.0767" y2="-421.8809" gradientTransform="matrix(0.5778 0.8162 -0.8162 0.5778 821.361 1536.5159)">
			<stop  offset="0" style="stop-color:#DF193A"/>
			<stop  offset="0.0746" style="stop-color:#BD132B"/>
			<stop  offset="0.1635" style="stop-color:#9B0C1C"/>
			<stop  offset="0.2548" style="stop-color:#810710"/>
			<stop  offset="0.3479" style="stop-color:#6E0408"/>
			<stop  offset="0.444" style="stop-color:#630203"/>
			<stop  offset="0.5478" style="stop-color:#5F0101"/>
			<stop  offset="0.6522" style="stop-color:#540102"/>
			<stop  offset="0.8192" style="stop-color:#490004"/>
			<stop  offset="1" style="stop-color:#450004"/>
		</linearGradient>
		<path style="fill:url(#SVGID_00000144327334393463816250000010618116815993920433_);" d="M292.037,11.858
			c0,0-9.213-3.28-36.016,4.805C269.677,13.529,278.681,11.666,292.037,11.858z"/>
		<g>
			<g>
				<polygon style="fill:#B0B0B0;" points="240.877,44.852 233.145,33.938 233.357,33.794 241.085,44.708 				"/>
				<polygon style="fill:#B0B0B0;" points="222.881,57.81 214.855,46.479 215.066,46.327 223.082,57.663 				"/>
				<polygon style="fill:#B0B0B0;" points="207.952,68.367 199.64,56.625 199.847,56.482 208.16,68.223 				"/>
				<polygon style="fill:#B0B0B0;" points="192.801,79.198 184.334,67.249 184.545,67.1 193.007,79.055 				"/>
				<polygon style="fill:#B0B0B0;" points="178.607,89.463 169.695,76.892 169.9,76.739 178.807,89.312 				"/>
				
					<rect x="162.476" y="83.569" transform="matrix(0.8162 -0.5778 0.5778 0.8162 -22.9207 110.7592)" style="fill:#B0B0B0;" width="0.25" height="15.663"/>
				
					<rect x="159.339" y="85.692" transform="matrix(0.8162 -0.5778 0.5778 0.8162 -24.7476 109.3433)" style="fill:#B0B0B0;" width="0.25" height="15.744"/>
				
					<rect x="144.479" y="95.793" transform="matrix(0.8163 -0.5776 0.5776 0.8163 -33.4249 102.5972)" style="fill:#B0B0B0;" width="0.253" height="16.123"/>
				<polygon style="fill:#B0B0B0;" points="134.241,121.07 124.622,107.496 124.826,107.349 134.442,120.925 				"/>
				
					<rect x="118.973" y="112.998" transform="matrix(0.8162 -0.5778 0.5778 0.8162 -48.2766 91.137)" style="fill:#B0B0B0;" width="0.247" height="16.889"/>
				<polygon style="fill:#B0B0B0;" points="120.421,131.007 110.658,117.224 110.876,117.073 120.625,130.862 				"/>
			</g>
			<g>
				<polygon style="fill:#B0B0B0;" points="47.156,162.995 47.007,162.784 251.725,21.57 251.868,21.781 				"/>
				<polygon style="fill:#B0B0B0;" points="48.77,165.277 48.619,165.065 258.022,20.643 258.162,20.849 				"/>
				<polygon style="fill:#B0B0B0;" points="50.381,167.556 50.243,167.344 264.465,18.469 264.608,18.676 				"/>
				<polygon style="fill:#B0B0B0;" points="52.001,169.831 51.85,169.625 269.854,17.293 270,17.5 				"/>
				<polygon style="fill:#B0B0B0;" points="53.614,172.111 53.476,171.899 275.398,16.331 275.542,16.531 				"/>
				<polygon style="fill:#B0B0B0;" points="55.223,174.395 55.083,174.181 280.709,15.051 280.86,15.258 				"/>
			</g>
		</g>
		<g>
			<path style="fill:#A9ABAE;" d="M66.273,213.831c-1.206,0.856-2.87,0.569-3.724-0.632c-0.853-1.206-0.567-2.867,0.633-3.716
				c1.202-0.85,2.871-0.57,3.724,0.632C67.757,211.319,67.473,212.982,66.273,213.831z"/>
			<path style="fill:#57595B;" d="M64.732,214.498c-0.892,0-1.772-0.417-2.328-1.197c-0.44-0.622-0.611-1.376-0.484-2.124
				c0.128-0.748,0.539-1.401,1.158-1.839c1.282-0.907,3.063-0.604,3.971,0.674c0.439,0.621,0.611,1.375,0.483,2.123
				c-0.128,0.748-0.539,1.401-1.158,1.839l0,0C65.877,214.328,65.302,214.498,64.732,214.498z M64.724,209.169
				c-0.499,0-1.003,0.149-1.441,0.458c-0.542,0.383-0.902,0.955-1.014,1.609c-0.112,0.655,0.039,1.316,0.423,1.86
				c0.798,1.12,2.358,1.384,3.478,0.59l0,0c0.542-0.383,0.902-0.955,1.013-1.61c0.112-0.656-0.039-1.316-0.423-1.859
				C66.277,209.534,65.506,209.169,64.724,209.169z"/>
		</g>
		<g>
			<path style="fill:#A9ABAE;" d="M65.589,212.863c-0.676,0.475-1.593,0.316-2.077-0.351c-0.457-0.672-0.306-1.595,0.36-2.069
				c0.669-0.47,1.59-0.305,2.064,0.357C66.411,211.472,66.254,212.402,65.589,212.863z"/>
			<path style="fill:#57595B;" d="M64.725,213.316c-0.517,0-1.025-0.243-1.357-0.701c-0.515-0.757-0.333-1.794,0.401-2.316
				c0.743-0.522,1.779-0.343,2.31,0.398c0.26,0.368,0.36,0.813,0.282,1.255c-0.076,0.433-0.315,0.808-0.672,1.056
				C65.394,213.216,65.058,213.316,64.725,213.316z M64.718,210.353c-0.259,0-0.519,0.076-0.745,0.235
				c-0.578,0.411-0.72,1.23-0.316,1.825c0.427,0.589,1.233,0.726,1.829,0.306l0.001-0.001c0.279-0.194,0.466-0.488,0.526-0.827
				c0.061-0.348-0.018-0.699-0.222-0.988C65.535,210.544,65.129,210.353,64.718,210.353z"/>
		</g>
		<g>
			<path style="fill:#A9ABAE;" d="M51.451,210.635c-1.2,0.848-2.865,0.557-3.713-0.641c-0.849-1.201-0.574-2.865,0.634-3.714
				c1.198-0.859,2.871-0.567,3.71,0.637C52.939,208.121,52.653,209.781,51.451,210.635z"/>
			<path style="fill:#57595B;" d="M49.924,211.298c-0.164,0-0.328-0.014-0.492-0.042c-0.748-0.13-1.401-0.542-1.838-1.16
				c-0.441-0.624-0.613-1.381-0.483-2.131c0.129-0.744,0.541-1.394,1.159-1.829c0.616-0.441,1.369-0.613,2.119-0.485
				c0.751,0.129,1.404,0.543,1.838,1.165c0.44,0.618,0.613,1.371,0.487,2.118c-0.127,0.749-0.539,1.404-1.16,1.845l0,0
				C51.07,211.12,50.505,211.298,49.924,211.298z M49.904,205.962c-0.511,0-1.007,0.158-1.43,0.461
				c-0.543,0.381-0.903,0.95-1.015,1.601c-0.114,0.657,0.036,1.32,0.423,1.867c0.383,0.541,0.955,0.902,1.61,1.016
				c0.656,0.114,1.315-0.035,1.856-0.417l0,0c0.545-0.386,0.906-0.961,1.017-1.616c0.111-0.654-0.041-1.313-0.427-1.855
				c-0.381-0.546-0.952-0.908-1.609-1.02C50.187,205.974,50.045,205.962,49.904,205.962z"/>
		</g>
		<g>
			<path style="fill:#A9ABAE;" d="M50.774,209.665c-0.676,0.472-1.595,0.314-2.073-0.357c-0.474-0.662-0.311-1.595,0.351-2.066
				c0.669-0.47,1.597-0.316,2.068,0.355C51.596,208.266,51.431,209.191,50.774,209.665z"/>
			<path style="fill:#57595B;" d="M49.912,210.117c-0.519,0-1.026-0.245-1.354-0.707c-0.255-0.356-0.355-0.793-0.282-1.23
				c0.074-0.441,0.313-0.825,0.674-1.082c0.752-0.529,1.79-0.35,2.315,0.397c0.527,0.741,0.354,1.779-0.387,2.313l-0.002,0.002
				C50.578,210.017,50.243,210.117,49.912,210.117z M49.908,207.147c-0.261,0-0.525,0.078-0.755,0.239
				c-0.283,0.202-0.472,0.504-0.53,0.852c-0.057,0.344,0.021,0.687,0.221,0.966c0.424,0.596,1.226,0.734,1.827,0.316
				c0.583-0.421,0.719-1.238,0.304-1.821C50.723,207.339,50.319,207.147,49.908,207.147z"/>
		</g>
		<g>
			<path style="fill:#A9ABAE;" d="M80.059,204.867c-1.201,0.843-2.87,0.56-3.719-0.645c-0.848-1.194-0.563-2.856,0.635-3.715
				c1.2-0.848,2.865-0.566,3.721,0.644C81.546,202.344,81.256,204.015,80.059,204.867z"/>
			<path style="fill:#57595B;" d="M78.526,205.529c-0.896,0-1.777-0.42-2.33-1.204c-0.901-1.27-0.598-3.047,0.677-3.961
				c1.281-0.906,3.061-0.598,3.968,0.685c0.438,0.615,0.608,1.367,0.479,2.118c-0.129,0.749-0.54,1.405-1.158,1.844l-0.001,0.001
				C79.663,205.361,79.092,205.529,78.526,205.529z M78.508,200.196c-0.496,0-0.996,0.148-1.431,0.455
				c-1.116,0.8-1.382,2.357-0.593,3.469c0.79,1.122,2.348,1.392,3.473,0.603c0.541-0.385,0.901-0.959,1.014-1.616
				c0.113-0.658-0.035-1.316-0.418-1.854C80.065,200.564,79.292,200.196,78.508,200.196z"/>
		</g>
		<g>
			<path style="fill:#A9ABAE;" d="M79.369,203.892c-0.659,0.475-1.587,0.32-2.063-0.352c-0.468-0.662-0.313-1.593,0.354-2.065
				c0.677-0.47,1.594-0.307,2.062,0.354C80.193,202.496,80.039,203.424,79.369,203.892z"/>
			<path style="fill:#57595B;" d="M78.518,204.344c-0.091,0-0.183-0.008-0.276-0.023c-0.439-0.073-0.823-0.315-1.081-0.679
				c-0.254-0.359-0.353-0.798-0.279-1.235c0.074-0.439,0.314-0.821,0.675-1.076c0.751-0.521,1.785-0.343,2.308,0.396
				c0.258,0.364,0.357,0.807,0.281,1.246c-0.076,0.434-0.316,0.812-0.675,1.063C79.19,204.238,78.859,204.344,78.518,204.344z
				 M78.512,201.385c-0.26,0-0.523,0.076-0.752,0.235c-0.282,0.2-0.471,0.5-0.529,0.846c-0.059,0.344,0.019,0.69,0.219,0.972
				c0.203,0.287,0.505,0.477,0.851,0.535c0.341,0.057,0.684-0.023,0.964-0.224l0.002-0.002c0.282-0.197,0.471-0.494,0.53-0.835
				c0.061-0.346-0.018-0.695-0.221-0.981C79.326,201.575,78.923,201.385,78.512,201.385z"/>
		</g>
		<g style="opacity:0.5;">
			
				<linearGradient id="SVGID_00000142137180440777007230000001782436405015634878_" gradientUnits="userSpaceOnUse" x1="-1560.7161" y1="-403.193" x2="-1560.7161" y2="-221.3465" gradientTransform="matrix(0.5778 0.8162 -0.8162 0.5778 821.361 1536.5159)">
				<stop  offset="0.211" style="stop-color:#402E2C"/>
				<stop  offset="0.2562" style="stop-color:#4B3733"/>
				<stop  offset="0.3942" style="stop-color:#674F44"/>
				<stop  offset="0.5144" style="stop-color:#795D4E"/>
				<stop  offset="0.6027" style="stop-color:#7F6252"/>
				<stop  offset="0.7044" style="stop-color:#6B5246"/>
				<stop  offset="0.8944" style="stop-color:#4C3833"/>
				<stop  offset="1" style="stop-color:#402E2C"/>
			</linearGradient>
			<path style="fill:url(#SVGID_00000142137180440777007230000001782436405015634878_);" d="M107.968,140.08l146.12-104.47
				l-0.778-1.112c-12.841,9.012-72.799,50.189-118.125,65.895l-37.39,25.321L107.968,140.08z"/>
		</g>
		<g style="opacity:0.5;">
			
				<linearGradient id="SVGID_00000110429341711785309990000003259564014188298386_" gradientUnits="userSpaceOnUse" x1="-1560.7161" y1="-403.1959" x2="-1560.7161" y2="-221.3465" gradientTransform="matrix(0.5778 0.8162 -0.8162 0.5778 821.361 1536.5159)">
				<stop  offset="0.211" style="stop-color:#402E2C"/>
				<stop  offset="0.2562" style="stop-color:#4B3733"/>
				<stop  offset="0.3942" style="stop-color:#674F44"/>
				<stop  offset="0.5144" style="stop-color:#795D4E"/>
				<stop  offset="0.6027" style="stop-color:#7F6252"/>
				<stop  offset="0.7044" style="stop-color:#6B5246"/>
				<stop  offset="0.8944" style="stop-color:#4C3833"/>
				<stop  offset="1" style="stop-color:#402E2C"/>
			</linearGradient>
			<polygon style="fill:url(#SVGID_00000110429341711785309990000003259564014188298386_);" points="102.188,122.739 
				97.795,125.714 107.968,140.08 112.273,137.002 			"/>
		</g>
	</g>
	<path style="opacity:0.56;fill:#FFFFFF;" d="M74.256,119.741c4.565-4.698,7.426-10.568,10.699-16.165
		c1.688-2.887,3.557-5.643,5.673-8.234c2.173-2.661,4.48-5.143,7.23-7.214c0.501-0.377,1.075-0.835,1.151-1.478
		c-1.157-0.519-2.466,0.527-3.285,1.261c-4.377,3.923-7.99,8.733-11.386,13.503c-1.916,2.69-3.766,5.427-5.754,8.065
		c-2.076,2.753-4.342,5.35-6.775,7.792c-2.511,2.521-5.144,5.027-8.09,7.035c-2.965,2.021-6.222,3.603-9.52,4.998
		c-3.276,1.386-6.675,2.47-10.11,3.387c-3.32,0.887-6.697,1.555-9.998,2.513c-2.913,0.846-5.716,1.965-8.313,3.541
		c-2.13,1.292-4.346,2.862-5.73,4.978c-0.298,0.455-0.548,0.937-0.729,1.451c-0.076,0.214,0.271,0.339,0.421,0.252
		c3.053-1.792,5.516-4.439,8.876-5.714c3.04-1.153,6.299-1.501,9.465-2.151c6.627-1.361,13.389-2.875,19.574-5.681
		C63.965,129.02,69.45,124.688,74.256,119.741z"/>
</g>
</svg>
